<?xml version="1.0" standalone="no"?>
<!DOCTYPE svg PUBLIC "-//W3C//DTD SVG 1.1//EN" "http://www.w3.org/Graphics/SVG/1.1/DTD/svg11.dtd" >
<svg xmlns="http://www.w3.org/2000/svg">
<metadata></metadata>
<defs>
<font id="day_romanexpert" horiz-adv-x="983" >
<font-face units-per-em="2048" ascent="1638" descent="-410" />
<missing-glyph horiz-adv-x="512" />
<glyph horiz-adv-x="0" />
<glyph unicode="&#xd;" horiz-adv-x="512" />
<glyph unicode=" "  horiz-adv-x="512" />
<glyph unicode="&#x09;" horiz-adv-x="512" />
<glyph unicode="&#xa0;" horiz-adv-x="512" />
<glyph unicode="$" horiz-adv-x="937" d="M254 825q0 127 66.5 192.5t171.5 82.5v112q16 14 43.5 10.5t50.5 0.5v-119q45 -4 94 -17.5t78 -46.5q8 -8 14 -17t6 -22q0 -70 -6 -133q-2 -12 -5 -23t-19 -11q-12 0 -20.5 24.5t-24 58t-43 65.5t-74.5 48l2 -334q47 -29 95 -59.5t87 -65t63.5 -78t24.5 -96.5 q0 -49 -22 -100q-35 -86 -98.5 -129t-147.5 -53v-54t2 -67q-4 -2 -11.5 1t-19.5 5t-31 2q-16 0 -41 -8v121q-33 4 -70.5 12t-71.5 21.5t-56.5 32t-22.5 44.5l2 70q0 23 -1 45t-1 51q2 10 11.5 12.5t17.5 2.5q12 0 17 -8.5t10 -18.5q14 -33 28.5 -64.5t34 -58.5t44 -46.5 t58.5 -27.5l3 367q-43 23 -86.5 48.5t-77 57t-54 73.5t-20.5 97zM395 889q0 -41 28 -73t69 -60v280q-47 -10 -72 -52t-25 -95zM586 184q51 16 80.5 58.5t29.5 103.5q0 49 -31.5 85t-78.5 67v-314z" />
<glyph unicode="'" horiz-adv-x="585" d="M125 1038q25 18 55.5 38t58 43.5t47 51t19.5 62.5q0 37 -22.5 55.5t-50 31.5t-50 28.5t-22.5 46.5q0 47 29.5 75.5t76.5 28.5q37 0 68 -16.5t53.5 -42t34.5 -59t12 -68.5q0 -51 -16.5 -93t-44 -76t-64.5 -61.5t-78 -50.5q-16 -10 -33.5 -19t-37.5 -9q-25 0 -31 22 q-4 4 -4 12z" />
<glyph unicode="(" horiz-adv-x="1114" d="M90 440q0 184 65.5 371.5t186.5 338t289 246t375 95.5h36q8 0 13.5 -10.5t5.5 -24.5t-4 -24.5t-15 -10.5h-45q-47 0 -92 -9t-88 -21q-80 -25 -107.5 -80.5t-22.5 -132t34 -167.5t61.5 -187.5t58 -191.5t25.5 -177q0 -94 -19.5 -202t-40 -213.5t-32.5 -202.5t-1 -171 t56 -118t142 -44h37q18 0 34 4q12 0 18.5 -11t6.5 -23t-6 -23.5t-19 -11.5q-20 0 -40.5 -1t-49.5 -1q-109 0 -215 42t-202.5 114.5t-177.5 170t-140 209t-93 231t-34 236.5z" />
<glyph unicode=")" horiz-adv-x="1114" d="M45 -526q0 12 6 23t19 11q16 -4 32 -4h39q96 0 141.5 44t56.5 118t-1 171t-32.5 202.5t-40 213t-19.5 202.5q0 82 25.5 177t58 191.5t61.5 187.5t34 167.5t-22.5 132t-107.5 80.5q-43 12 -88 21t-92 9h-45q-10 0 -14.5 10.5t-4.5 24.5t4 24.5t15 10.5h36q205 0 374 -95.5 t290 -246t186.5 -338t65.5 -371.5q0 -117 -34 -236.5t-93 -231t-140 -209t-177.5 -170t-203 -114.5t-214.5 -42q-29 0 -49.5 1t-40.5 1q-12 0 -18.5 11t-6.5 24z" />
<glyph unicode="*" horiz-adv-x="1128" d="M80 664q8 12 14 32q37 80 107.5 123t175.5 43q53 0 104 -21.5t100.5 -48t96.5 -48t92 -21.5q70 0 114 40t74 87q23 -4 40.5 -14.5t33.5 -22.5q-16 -41 -40.5 -79t-59.5 -67.5t-80 -48t-100 -18.5q-59 0 -106.5 22.5t-92.5 48t-93 48t-106 22.5q-49 0 -77.5 -11t-50 -29.5 t-41 -40t-50.5 -42.5q-16 10 -28.5 21.5t-26.5 24.5zM88 295q4 8 9 15t9 16q37 78 107 118.5t176 40.5q53 0 105.5 -20.5t102.5 -46t98 -46t96 -20.5q72 0 116.5 38t73.5 83q25 -4 42.5 -14.5t35.5 -20.5q-16 -39 -42 -75.5t-60.5 -64.5t-81 -45t-103.5 -17q-59 0 -108.5 20 t-95.5 46t-94 46.5t-107 20.5q-49 0 -79 -11.5t-51.5 -28t-42 -37t-51.5 -40.5q-16 10 -29.5 21.5t-25.5 21.5z" />
<glyph unicode="+" horiz-adv-x="804" d="M76 272q39 35 93 90.5t144 145.5l-229 231q10 39 26.5 58.5t65.5 33.5q59 -61 116.5 -118.5l110.5 -110.5l232 229q39 -10 58.5 -26.5t33.5 -65.5q-61 -59 -120.5 -117.5t-112.5 -113.5l245 -244q-8 -12 -18 -23.5t-21 -21.5q-12 -10 -26.5 -23.5t-30.5 -15.5 q-35 39 -91 94.5t-149 147.5l-243 -246q-12 8 -23.5 18.5t-21.5 20.5q-10 12 -23.5 26.5t-15.5 30.5z" />
<glyph unicode="-" d="M73.5 504.5q-1.5 25.5 24.5 70.5q125 0 244 -1t223.5 -2t188.5 -1h143q4 -14 4 -30v-29q0 -16 -1 -35.5t-11 -32.5q-43 2 -105 2h-153t-222 -1t-311 -1q-23 35 -24.5 60.5z" />
<glyph unicode="." horiz-adv-x="526" d="M145 719q0 53 36 91t89 38t91 -38t38 -91t-40 -90t-91 -37q-53 0 -88 37t-35 90z" />
<glyph unicode="/" horiz-adv-x="542" d="M-264 72q248 330 503 651t498 657q23 0 56.5 -22.5t56.5 -34.5q-57 -86 -120.5 -167t-129.5 -163q-193 -244 -383 -485.5t-371 -493.5q-10 4 -36.5 22.5t-73.5 35.5z" />
<glyph unicode="0" horiz-adv-x="821" d="M84 1237q0 70 23.5 131.5t66.5 107.5t102.5 72.5t131.5 26.5q66 0 125 -24.5t104 -67.5t71.5 -102.5t26.5 -127.5q0 -70 -23.5 -131t-66.5 -107t-102.5 -74t-130.5 -28q-145 0 -236.5 88.5t-91.5 235.5zM233 1247q-2 -51 11.5 -90t38 -65.5t58.5 -40t71 -13.5 q68 0 124 49.5t58 145.5q0 49 -14.5 90t-40 69.5t-59.5 44t-72 15.5q-63 0 -117.5 -56.5t-57.5 -148.5z" />
<glyph unicode="1" horiz-adv-x="729" d="M70 854q0 18 20.5 25.5t48 12.5t58 12t51.5 26q12 10 19 33.5t9.5 51t2.5 54.5v43l2 145q0 27 0 21t1 -18.5t1 -18.5t0 19v38q0 25 -3.5 51.5t-8.5 49t-13 33.5q-23 23 -53.5 27.5t-59 6.5t-48 10.5t-19.5 36.5q0 12 9 18.5t21.5 7.5t24.5 1h23q59 0 97 -6t97 -6 q29 0 59.5 3t59.5 3h178q12 -13 12 -23q0 -29 -21.5 -35t-49.5 -6q-55 0 -86 -10t-45.5 -28.5t-16.5 -47t-2 -65.5q0 -63 -1 -95t-2 -57.5t-2 -58.5t-1 -96v20q2 -29 8 -60.5t27 -47.5q18 -16 50 -22.5t61.5 -11.5t52 -11.5t22.5 -24.5q0 -31 -29.5 -34t-60.5 -3 q-57 0 -114.5 6t-114.5 6q-31 0 -50.5 -2t-38 -5t-38 -5t-49.5 -2h-29q-14 0 -27.5 3t-22.5 11.5t-9 24.5z" />
<glyph unicode="2" horiz-adv-x="815" d="M109 850q0 4 3 10t7 10q57 63 104 101.5t86 69t69 64.5t52 89q43 113 0 178.5t-147 65.5q-31 0 -51.5 -12.5t-35 -29t-25.5 -31.5t-24 -22q-12 -6 -23 2.5t-11 22.5q0 8 7 23.5t17 31t21.5 29.5t17.5 21q31 27 52.5 43t42 24t42 11t52.5 3q147 0 214.5 -93t24.5 -247 q-16 -61 -63 -110t-101.5 -87t-101.5 -62.5t-66 -32.5q27 -12 68 -16.5t82 -1.5t77 15.5t52 32.5q20 27 43.5 61t45.5 63.5t38 53t20 29.5q16 23 40 13.5t32 -27.5q-51 -82 -70.5 -145.5t-25.5 -106.5t-9 -65.5t-18 -22.5q-59 0 -98 4t-76 10t-79 12.5t-105 8.5h-35t-13 -1 t-14 -1h-34q-4 0 -10.5 -5.5t-11.5 -11.5t-11 -11t-10 -3q-20 0 -30.5 8t-10.5 35z" />
<glyph unicode="3" horiz-adv-x="593" d="M82 1452q-2 14 13.5 32.5t39 34t52 28t57.5 16.5q31 4 67.5 2t68.5 -16.5t54.5 -40t22.5 -66.5q0 -27 -17.5 -57.5t-42 -59.5t-51.5 -52.5t-43 -35.5q53 6 96 -9.5t74 -44t48.5 -68.5t17.5 -85q0 -68 -46.5 -132t-113 -113.5t-142 -79t-137.5 -29.5q-8 0 -11 8t-2 19.5 t4 19.5t7 8q55 16 105.5 41t88.5 58.5t59.5 77.5t21.5 100q0 59 -32 97t-91 50q-25 4 -51.5 6t-51.5 -10q-8 -4 -23 -14.5t-22 -10.5q-4 0 -7 8.5t-5 18.5t-3 20.5t-1 14.5q0 10 15.5 18t23.5 13q27 14 57.5 36.5t57 48t44 50t17.5 41.5q0 57 -25.5 67.5t-64.5 3.5 q-37 -6 -60.5 -21t-50.5 -48q-2 -2 -5 5t-6 16t-5 19.5t-2 14.5z" />
<glyph unicode="4" horiz-adv-x="749" d="M48.5 960.5q-7.5 14.5 2.5 28.5q66 98 122 191.5t122 181.5q25 33 35 50.5t17 31.5t17.5 31.5t32.5 50.5q12 18 34 25.5t43.5 6t36.5 -9.5t15 -22q0 -4 1 3l1 7v-16v-62v-137v-236v-20q0 -8 4 -18q31 -8 56.5 -6.5t56.5 1.5q27 0 43.5 -17t16.5 -42q0 -37 -35 -37 q-23 0 -43.5 2t-42.5 2q-16 0 -25.5 -2t-23.5 -6q-4 -16 -5 -35v-33v-67v-29q0 -12 5 -26q-2 -25 -24 -36t-46.5 -13.5t-45 5t-20.5 19.5q2 31 3 44t1 22v20v35q0 33 1.5 63.5t-27.5 34.5q-25 2 -48.5 3t-45.5 1q-49 0 -71 -1t-38 -1q-14 0 -35.5 -1t-70.5 -1 q-12 0 -19.5 14.5zM195 1063q0 -12 12 -17.5t22 -5.5q35 0 71 2t56 5q35 0 42.5 9t7.5 31v70q0 31 -1.5 61.5t-1.5 69.5v103q-23 -31 -32 -45.5t-17 -28.5t-20 -34.5t-43 -61.5q-27 -35 -52.5 -75t-43.5 -83z" />
<glyph unicode="5" horiz-adv-x="821" d="M84 324q0 70 23.5 131t66.5 107t102.5 73t131.5 27q66 0 125 -25t104 -68t71.5 -102t26.5 -127q0 -70 -23.5 -131.5t-66.5 -107.5t-102.5 -73.5t-130.5 -27.5q-145 0 -236.5 88t-91.5 236zM233 334q-2 -51 11.5 -90t38 -65.5t58.5 -40t71 -13.5q68 0 124 49t58 145 q0 49 -14.5 90.5t-40 70t-59.5 44t-72 15.5q-63 0 -117.5 -56.5t-57.5 -148.5z" />
<glyph unicode="6" horiz-adv-x="729" d="M70 43q0 18 20.5 25.5t48 12.5t58 12t51.5 26q12 10 19 33.5t9.5 51t2.5 54.5v43l2 145q0 27 0 21t1 -18.5t1 -18.5t0 19v38q0 25 -3.5 51.5t-8.5 49t-13 33.5q-23 23 -53.5 27.5t-59 6.5t-48 10.5t-19.5 36.5q0 12 9 18.5t21.5 7.5t24.5 1h23q59 0 97 -6t97 -6 q29 0 59.5 3t59.5 3h178q12 -13 12 -23q0 -29 -21.5 -35t-49.5 -6q-55 0 -86 -10t-45.5 -28.5t-16.5 -47t-2 -65.5q0 -63 -1 -95t-2 -57.5t-2 -58.5t-1 -96v20q2 -29 8 -60.5t27 -47.5q18 -16 50 -22.5t61.5 -11.5t52 -11.5t22.5 -24.5q0 -31 -29.5 -34t-60.5 -3 q-57 0 -114.5 6t-114.5 6q-31 0 -50.5 -2t-38 -5t-38 -5t-49.5 -2h-29q-14 0 -27.5 3t-22.5 11.5t-9 24.5z" />
<glyph unicode="7" horiz-adv-x="815" d="M109 43q0 4 3 10t7 10q57 63 104 101.5t86 69t69 64.5t52 89q43 113 0 178.5t-147 65.5q-31 0 -51.5 -12.5t-35 -29t-25.5 -31.5t-24 -21q-12 -6 -23 2t-11 22q0 8 7 23.5t17 31t21.5 29.5t17.5 21q31 27 52.5 43t42 24t42 11.5t52.5 3.5q147 0 214.5 -93.5t24.5 -246.5 q-16 -61 -63 -110.5t-101.5 -87.5t-101.5 -62.5t-66 -32.5q27 -12 68 -16.5t82 -1.5t77 15.5t52 32.5q20 27 43.5 61t45.5 63.5t38 53t20 29.5q16 23 40 13.5t32 -27.5q-51 -82 -70.5 -145.5t-25.5 -106.5t-9 -65.5t-18 -22.5q-59 0 -98 4t-76 10t-79 12.5t-105 8.5h-35 t-13 -1t-14 -1h-34q-4 0 -10.5 -5.5t-11.5 -11.5t-11 -11t-10 -3q-20 0 -30.5 8t-10.5 35z" />
<glyph unicode="8" horiz-adv-x="593" d="M82 641q-2 14 13.5 32.5t39 34t52 28t57.5 16.5q31 4 67.5 2t68.5 -16.5t54.5 -40t22.5 -66.5q0 -27 -17.5 -57.5t-42 -59.5t-51.5 -52.5t-43 -35.5q53 6 96 -9.5t74 -44t48.5 -68.5t17.5 -85q0 -68 -46.5 -132t-113 -113.5t-142 -79t-137.5 -29.5q-8 0 -11 8t-2 19.5 t4 19.5t7 8q55 16 105.5 41t88.5 58.5t59.5 77.5t21.5 100q0 59 -32 97t-91 50q-25 4 -51.5 6t-51.5 -10q-8 -4 -23 -14.5t-22 -10.5q-4 0 -7 8.5t-5 18.5t-3 20.5t-1 14.5q0 10 15.5 18t23.5 13q27 14 57.5 36.5t57 48t44 50t17.5 41.5q0 57 -25.5 67.5t-64.5 3.5 q-37 -6 -60.5 -21.5t-50.5 -47.5q-2 -2 -5 5t-6 16t-5 19.5t-2 14.5z" />
<glyph unicode="9" horiz-adv-x="749" d="M48.5 180.5q-7.5 14.5 2.5 28.5q66 98 122 191.5t122 181.5q25 33 35 50t17 31.5t17.5 32t32.5 49.5q12 18 34 25.5t43.5 6.5t36.5 -9t15 -23q0 -4 1 3l1 8v-17v-61v-137v-236v-20q0 -8 4 -19q31 -8 56.5 -6t56.5 2q27 0 43.5 -17t16.5 -42q0 -37 -35 -37q-23 0 -43.5 2 t-42.5 2q-16 0 -25.5 -2t-23.5 -6q-4 -16 -5 -35v-33v-67v-27q0 -14 5 -29q-2 -25 -24 -36t-46.5 -13t-45 5t-20.5 20q2 31 3 44t1 21v21v35q0 33 1.5 63.5t-27.5 34.5q-25 2 -48.5 3t-45.5 1q-49 0 -71 -1t-38 -1q-14 0 -35.5 -1t-70.5 -1q-12 0 -19.5 14.5zM195 283 q0 -12 12 -17.5t22 -5.5q35 0 71 2t56 4q35 0 42.5 9.5t7.5 31.5v70q0 31 -1.5 61.5t-1.5 69.5v102q-23 -31 -32 -45t-17 -28.5t-20 -35t-43 -61.5q-27 -35 -52.5 -74.5t-43.5 -82.5z" />
<glyph unicode=":" horiz-adv-x="999" d="M152 1196q0 51 15 91t42 72t61.5 58.5t73.5 52.5q10 8 28.5 19.5t30.5 11.5q6 0 9 -2q6 0 10 -8q8 -7 12 -27q-10 -10 -22.5 -18t-22.5 -16q-16 -12 -36.5 -29t-38 -37.5t-30 -42t-12.5 -43.5q0 -37 22.5 -55.5t50.5 -35t51.5 -35.5t23.5 -56q0 -51 -35 -71.5t-80 -20.5 q-39 0 -67.5 17t-48 45t-28.5 61.5t-9 68.5zM549 1206q0 43 17.5 83t46 74t63.5 61.5t69 48.5q14 8 32 18t34 10q8 0 12 -2q17 0 17 -20q0 -10 -6.5 -20.5t-12.5 -18.5q-25 -6 -51.5 -23.5t-48 -40t-34.5 -50.5t-13 -54q0 -35 22.5 -53.5t48 -31.5t48 -29.5t22.5 -49.5 q0 -104 -108 -104q-41 0 -71 18t-49.5 47t-28.5 64.5t-9 72.5z" />
<glyph unicode=";" horiz-adv-x="999" d="M139 1032q0 8 27 25.5t58.5 44t58 59.5t26.5 72q0 37 -23.5 55.5t-51 32.5t-50 30.5t-22.5 47.5q0 51 29.5 76.5t78.5 25.5q39 0 69 -16.5t50.5 -42t31.5 -59t11 -68.5q0 -94 -58.5 -168t-137.5 -115q-10 -4 -29 -13t-29 -9q-2 0 -3 1t-3 1q-4 0 -7 -1t-7 -1 q-18 0 -19 22zM545 1038q0 12 25.5 28.5t55 39t55.5 53.5t26 72q0 35 -22.5 53.5t-49.5 33.5t-49.5 31.5t-22.5 49.5q0 104 103 104q39 0 69.5 -16.5t52 -44t32.5 -61t11 -70.5q0 -45 -15 -86t-41.5 -76t-59.5 -64.5t-70 -50.5q-10 -6 -34.5 -18t-35.5 -12q-14 0 -22 11 t-8 23z" />
<glyph unicode="&#x3c;" horiz-adv-x="907" d="M73.5 50q2.5 -21 24.5 -48q180 0 299 1t199 1h131q53 0 96 -2q10 10 11.5 25.5t1.5 27.5v23q0 14 -5 24q-117 0 -299 1t-434 3q-27 -35 -24.5 -56zM74 629v127q86 49 150.5 89t118.5 75.5t101.5 68.5t99.5 67t114.5 72.5t146.5 83.5q0 -18 2 -26t4 -14.5t4 -13.5t2 -25 q-94 -70 -166.5 -125.5t-137 -106.5t-128 -100.5t-139.5 -106.5q98 -76 168.5 -128t133 -98t129 -92t159.5 -110q0 -18 -3.5 -26.5t-7.5 -15.5t-7 -15t-3 -27q-119 61 -202 109.5t-160.5 97.5t-165.5 105.5t-213 134.5z" />
<glyph unicode="=" horiz-adv-x="1048" d="M98 672.5q-2 25.5 25 70.5q111 -2 213 -2q104 0 201 -2q29 76 60.5 165t72.5 202q23 6 57.5 2t56.5 -8q-27 -96 -61.5 -182.5t-69.5 -178.5q82 -2 150.5 -1t118.5 1q4 -14 4 -30v-29q0 -16 -1 -35.5t-12 -32.5q-49 2 -122 2h-187q-23 -63 -41 -110t-35 -86h387 q27 -37 22 -66.5t-22 -64.5q-90 -2 -204.5 -3t-231.5 -1q-20 -55 -44.5 -128t-61.5 -188q-10 0 -36 -2t-77 2q35 96 61.5 173t51.5 143q-78 2 -145.5 3t-114.5 3q0 18 -5.5 32.5t-5.5 32.5q0 12 5.5 30.5t7.5 31.5q45 0 128 1t177 1q18 49 35.5 97t33.5 97h-366 q-23 35 -25 60.5z" />
<glyph unicode="&#x3e;" horiz-adv-x="907" d="M74 55q0 -12 1 -27.5t11 -25.5q43 2 94 2h133t199 -1t299 -1q23 27 25 48.5t-25 55.5q-252 -2 -434 -3t-299 -1q-4 -10 -4 -24v-23zM74 266q92 63 157.5 109.5t129 92.5t134.5 98t169 128q-78 57 -140.5 106.5t-127 100.5t-137.5 106.5t-167 125.5q0 18 2 25t4 13.5 t4 14.5t2 26q84 -47 146.5 -84.5t115 -71.5t99.5 -67t101.5 -68.5t119 -75.5t150.5 -89v-127q-84 -51 -149.5 -93t-122 -78t-107.5 -69t-105.5 -64.5t-116 -66.5t-141.5 -76q0 18 -3 26.5t-7 15.5t-7 15.5t-3 26.5z" />
<glyph unicode="?" horiz-adv-x="1234" d="M72 827q0 113 45 196t120.5 136t176 79t211.5 26h116q98 0 195.5 -2t196.5 -13q14 -2 26 -8t12 -22q0 -27 -16 -35t-39.5 -9t-52.5 1t-52.5 -5.5t-40 -28t-16.5 -65.5v-69v-50v-67q0 -39 1 -114t2 -196.5t4 -312.5q0 -115 -15.5 -239.5t-61.5 -232t-131 -181.5t-223 -88 q-12 -2 -19 9t-7 26q0 12 6 25.5t20 15.5q66 6 108 49t67.5 106.5t37 139t15.5 149.5t3 135.5t1 96.5v75q0 16 0 11q0 -4 -1 -16.5t-1 -6.5v733q0 25 -20.5 38t-45.5 13t-46 -13t-21 -38v-682q-37 0 -46.5 1t-23.5 1q-98 0 -187 32t-154.5 89t-104.5 137t-39 174z" />
<glyph unicode="A" horiz-adv-x="1775" d="M47 4q0 29 24.5 35t55.5 13t55.5 28.5t24.5 81.5v588q0 27 -6 55q-49 6 -97 6q-16 0 -36.5 4t-20.5 27q0 8 1 19t5 20q6 10 25.5 14t43 6t47.5 5t36 9q6 80 10 163t25 161q18 78 55 148.5t90 124.5t123 84q66 29 144 28h10q51 -2 100 -10t86 -31q23 68 60.5 128.5 t89.5 105.5q50 45 114 71q59 24 130 23h11q43 0 87 -7.5t79 -23.5t57.5 -44t24.5 -73q6 -25 -7 -47t-35.5 -35.5t-48.5 -15.5t-42 12q-10 8 -18.5 31t-27.5 44.5t-61 38.5t-120 17q-66 0 -103 -56t-55 -134t-23.5 -160t-5.5 -135v-39v-76t1 -96t2 -95t3.5 -76t6.5 -36h403 q31 0 58.5 10.5t49 19.5t36 14t20.5 -1q4 -4 8 -5t4 -5q0 -31 -1 -60.5t-3 -60.5q-2 -61 -3 -123.5t-1 -124.5q0 -76 1 -150.5t3 -150.5q0 -34 -1 -70v-15q0 -28 3 -56q4 -43 27.5 -57.5t51.5 -19.5t50.5 -10t22.5 -30q0 -23 -21.5 -24.5t-36.5 -1.5q-37 0 -72.5 5t-70.5 5 q-53 0 -108.5 -5t-108.5 -5h-23q-10 0 -20 2t-17.5 8t-7.5 20q0 6 4.5 10.5l8.5 8.5q18 14 41.5 16t46 6t40 15.5t23.5 44.5q4 16 4 28v31q1 44 1 86v42v42q0 42 1 86q2 49 5.5 97t3.5 98q0 33 -5.5 65.5t-19.5 59t-40 44t-67 19.5h-122h-82q-41 0 -80 -2q-6 -6 -9 -18.5 t-4.5 -25.5t0 -27.5t1.5 -22.5q0 -139 -1.5 -276.5t-1.5 -276.5q0 -45 14.5 -67.5t37 -34t53.5 -14.5t65 -9q8 -8 9 -23q0 -16 -11 -18l-2 -6q-16 -8 -39 -8q-39 0 -77.5 6t-77.5 6q-59 0 -118.5 -6t-119.5 -6q-10 0 -31.5 2t-21.5 18q0 29 24.5 35t55.5 13t55.5 28.5 t24.5 81.5v588q0 27 -6 55q-16 2 -70.5 3t-120.5 1q-63 0 -125.5 1t-95.5 1q-6 -6 -9 -18.5t-4 -25.5t0 -27.5t1 -22.5q0 -139 -1 -276.5t-1 -276.5q0 -45 14 -67.5t36.5 -34t53.5 -14.5t66 -9q8 -8 8 -23q0 -16 -10 -18l-3 -6q-16 -8 -38 -8q-39 0 -78 6t-78 6 q-59 0 -118.5 -6t-119.5 -6q-10 0 -31.5 2t-21.5 18zM362 1008q0 -18 1.5 -39t3.5 -39.5t8 -24.5l422 10q2 106 3 169t2 108t3 85t6 101q-12 10 -18.5 34t-30 48.5t-71.5 43t-142 18.5q-66 0 -102.5 -56.5t-55 -134.5t-24 -159.5t-5.5 -135.5v-28z" />
<glyph unicode="B" horiz-adv-x="1775" d="M47 4q0 29 24.5 35t55.5 13t55.5 28.5t24.5 81.5v588q0 27 -6 55q-49 6 -97 6q-16 0 -36.5 4t-20.5 27q0 8 1 19t5 20q6 10 25.5 14t43 6t47.5 5t36 9q6 80 10 163t25 161q18 78 55 148.5t90 124.5t123 84q66 29 144 28h10q51 -2 100 -10t86 -31q23 68 60.5 128.5 t89.5 105.5q50 45 114 71q59 24 130 23h11q43 0 87 -7.5t79 -23.5t57.5 -44t24.5 -73q6 -25 -7 -47t-35.5 -35.5t-48.5 -15.5t-42 12q-10 8 -18.5 31t-27.5 44.5t-61 38.5t-120 17q-66 0 -103 -56t-55 -134t-23.5 -160t-5.5 -135v-39v-76t1 -96t2 -95t3.5 -76t6.5 -36h403 q31 0 58.5 10.5t49 19.5t36 14t20.5 -1q4 -4 8 -5t4 -5q0 -31 -1 -60.5t-3 -60.5q-2 -61 -3 -123.5t-1 -124.5q0 -76 1 -150.5t3 -150.5q0 -34 -1 -70v-15q0 -28 3 -56q4 -43 27.5 -57.5t51.5 -19.5t50.5 -10t22.5 -30q0 -23 -21.5 -24.5t-36.5 -1.5q-37 0 -72.5 5t-70.5 5 q-53 0 -108.5 -5t-108.5 -5h-23q-10 0 -20 2t-17.5 8t-7.5 20q0 6 4.5 10.5l8.5 8.5q18 14 41.5 16t46 6t40 15.5t23.5 44.5q4 16 4 28v31q1 44 1 86v42v42q0 42 1 86q2 49 5.5 97t3.5 98q0 33 -5.5 65.5t-19.5 59t-40 44t-67 19.5h-122h-82q-41 0 -80 -2q-6 -6 -9 -18.5 t-4.5 -25.5t0 -27.5t1.5 -22.5q0 -139 -1.5 -276.5t-1.5 -276.5q0 -45 14.5 -67.5t37 -34t53.5 -14.5t65 -9q8 -8 9 -23q0 -16 -11 -18l-2 -6q-16 -8 -39 -8q-39 0 -77.5 6t-77.5 6q-59 0 -118.5 -6t-119.5 -6q-10 0 -31.5 2t-21.5 18q0 29 24.5 35t55.5 13t55.5 28.5 t24.5 81.5v588q0 27 -6 55q-16 2 -70.5 3t-120.5 1q-63 0 -125.5 1t-95.5 1q-6 -6 -9 -18.5t-4 -25.5t0 -27.5t1 -22.5q0 -139 -1 -276.5t-1 -276.5q0 -45 14 -67.5t36.5 -34t53.5 -14.5t66 -9q8 -8 8 -23q0 -16 -10 -18l-3 -6q-16 -8 -38 -8q-39 0 -78 6t-78 6 q-59 0 -118.5 -6t-119.5 -6q-10 0 -31.5 2t-21.5 18zM362 1008q0 -18 1.5 -39t3.5 -39.5t8 -24.5l422 10q2 106 3 169t2 108t3 85t6 101q-12 10 -18.5 34t-30 48.5t-71.5 43t-142 18.5q-66 0 -102.5 -56.5t-55 -134.5t-24 -159.5t-5.5 -135.5v-28zM1319 1321q0 47 37 86 t84 39q27 0 51.5 -10.5t43.5 -28.5t30.5 -41.5t11.5 -50.5q0 -55 -40 -94t-95 -39q-6 0 -10 2q-23 2 -43.5 15t-36 32.5t-24.5 43t-9 46.5z" />
<glyph unicode="C" horiz-adv-x="1325" d="M47 4q0 29 24.5 35t55.5 13t55.5 28.5t24.5 81.5v577q0 27 -6 56q-49 6 -97 6q-16 0 -36.5 4t-20.5 26q0 8 1 19.5t5 19.5q6 10 25.5 15t43 6.5t47.5 4.5t36 9q6 80 10 168t25 166q18 78 55 148.5t90 124.5t123 84q66 29 144 28h10q43 0 87 -7t78.5 -23.5t57 -44 t24.5 -72.5q6 -25 -7 -47.5t-35.5 -36t-48 -15.5t-42.5 13q-10 8 -18 30.5t-27.5 44t-61.5 39t-120 17.5q-66 0 -102.5 -56.5t-55 -134.5t-24 -159.5t-5.5 -135.5v-30t1.5 -43t3.5 -42.5t8 -25.5h305q37 2 61.5 9t46.5 26q25 20 39.5 33.5t25.5 27t22.5 30.5t29.5 46 q8 18 27 18q14 0 15 -11t3 -21q-2 -10 -2 -21v-20v-54t4 -51q18 -4 42 -5t49.5 0l51 2t44.5 1h20t34.5 -1t34 -3t17.5 -4q12 -4 15.5 -16.5t3.5 -22.5t-4.5 -20.5t-6.5 -20.5q-8 -10 -30.5 -11t-32.5 -1q-41 0 -79 2t-77 2q-14 0 -39.5 -1t-36.5 -11q-10 0 -10 -9 q-8 -14 -8 -36q-3 -56 -3 -112v-28q1 -70 1 -139q0 -61 -1 -122.5t-1 -123.5q0 -66 40 -104.5t105 -38.5q55 0 85 19.5t73 46.5q23 0 23 -21q0 -33 -21.5 -58.5t-46.5 -43.5q-39 -29 -89 -42.5t-99 -13.5q-127 0 -180.5 72t-53.5 190q0 127 3 251t3 251q0 33 -15 47.5 t-35.5 18.5t-44.5 3t-38 -1h-160q-74 0 -104 -2q-6 -6 -9 -18.5t-4 -26t0 -27.5t1 -22q0 -139 -1 -271.5t-1 -271.5q0 -45 14 -67.5t36.5 -34t53.5 -14.5t66 -9q8 -8 8 -23q0 -16 -10 -18l-3 -6q-16 -8 -38 -8q-39 0 -78 6t-78 6q-59 0 -118.5 -6t-119.5 -6q-10 0 -31.5 2 t-21.5 18z" />
<glyph unicode="D" horiz-adv-x="1705" d="M73 1436q3 16 11 24t49 15.5t98.5 12.5t125 8t130 5t111.5 3t70 1q205 0 373.5 -53t289.5 -154.5t186.5 -247t65.5 -329.5q0 -176 -73.5 -313.5t-194.5 -231.5t-275.5 -143t-318.5 -49q-49 0 -81 2t-60.5 4t-60.5 4t-81 2q-84 0 -164.5 -5t-164.5 -5q-18 0 -19 18 q0 18 11.5 29.5t26.5 17.5t32.5 8t32.5 7q66 14 81 43.5t19 91.5q2 23 3 52.5t2 83.5t2 138t1 215h-102h-29q-16 0 -33.5 1t-29 3t-11.5 6v11v14v23v40q0 6 15.5 10.5t35 5.5t39.5 1h35q20 0 40 -1t40 -1v241v66q0 47 -2 97t-5 94.5t-9 56.5q-14 31 -44 38t-61 7 q-16 0 -32.5 -1t-32.5 -1q-20 0 -35 10q-8 6 -8 17q0 4 1 8zM496 358q0 -90 11 -149t36.5 -94t64.5 -49.5t94 -14.5q143 0 263 53.5t205 146.5t132.5 218t47.5 266q0 248 -126 423t-368 247q-43 12 -88 21.5t-92 9.5h-58q2 0 -11 -1t-31.5 -7.5t-38 -19.5t-29.5 -38 q-6 -20 -8 -39.5t-2 -40.5q0 -53 1 -108.5t1 -108.5v-137q0 -72 -2 -137q53 0 116.5 1t125 2t113.5 2t81 1q12 0 12 -27v-71q0 -6 -10 -10.5t-25.5 -5.5t-31.5 -1h-27h-356v-332z" />
<glyph unicode="E" horiz-adv-x="1544" d="M16 559q0 12 1 24.5t3 24.5h13q6 0 21.5 1t45.5 1h93q-14 72 -15 160v31q0 14 2 28q-41 2 -79 4.5t-78 4.5q0 18 -1.5 35.5t-1.5 35.5q0 12 1.5 24.5t3.5 24.5q16 0 62 1.5t110 1.5q27 133 92 235t161.5 173t219.5 107.5t264 36.5q70 0 138.5 -8t137.5 -22 q16 -4 38 -11.5t44 -13.5q14 -12 24.5 1.5t23 33.5t31 39.5t48.5 19.5q14 0 18.5 -20.5t4.5 -48.5q0 -29 -3 -59.5t-3 -53.5q0 -53 -2 -106.5t-7 -106.5q-4 -18 -10 -24.5t-14 -6.5t-15.5 2t-13.5 2q-12 0 -20 18.5t-14.5 44.5t-13.5 53.5t-19 47.5q-66 72 -161 110t-196 38 q-117 0 -205 -37t-151.5 -102.5t-101 -153.5t-56.5 -188h29q149 3 308 3h81q203 -1 393 -3q6 -29 6 -58q0 -16 -1 -36.5t-11 -32.5q-27 3 -55 3q-14 0 -28 -1q-42 -2 -83 -2l-653 -5v-57q0 -41 2 -81t6 -81h135q72 0 165 -1t218 -1h297q4 -14 4 -28v-27q0 -16 -1 -36.5 t-11 -33.5q-27 3 -55 3q-14 0 -28 -1q-42 -2 -83 -2h-41h-43t-62.5 -1t-99.5 -1q-59 0 -149 -1t-221 -1q25 -94 67.5 -176t106 -142.5t148.5 -95t194 -34.5q49 0 102 11t103.5 32.5t94.5 52.5t77 72q10 14 23 38.5t27.5 49t27 43t22.5 18.5q23 0 32 -8t9 -31q0 -16 -5 -53 t-13.5 -76t-18.5 -72.5t-20 -44.5q-35 -31 -92.5 -52t-123 -34.5t-133 -20.5t-125.5 -7q-139 0 -256.5 40t-211 111.5t-161 168t-106.5 210.5q-53 2 -108.5 4t-96.5 4q0 18 -1 36t-1 36z" />
<glyph unicode="F" horiz-adv-x="1249" d="M47 4q0 29 24.5 35t55.5 13t55.5 28.5t24.5 81.5v588q0 27 -6 55q-49 6 -97 6q-16 0 -36.5 4t-20.5 27q0 8 1 19t5 20q6 10 25.5 14t43 6t47.5 5t36 9q6 80 10 163t25 161q18 78 55 148.5t90 124.5t123 84q66 29 144 28h10q43 0 87 -7t78.5 -23.5t57 -44t24.5 -72.5 q6 -25 -7 -47.5t-35.5 -36t-48 -15.5t-42.5 13q-10 8 -18 30.5t-27.5 44t-61.5 39t-120 17.5q-66 0 -102.5 -56.5t-55 -134.5t-24 -159.5t-5.5 -135.5v-28t1.5 -39t3.5 -39.5t8 -24.5h469q31 0 58.5 10.5t49 19.5t35.5 14t21 -1q4 -4 8 -5t4 -5q0 -31 -1 -60.5t-3 -60.5 q-2 -61 -3 -123.5t-1 -124.5q0 -76 1 -150.5t3 -150.5q0 -34 -1 -70v-15q0 -28 3 -56q4 -43 27.5 -57.5t51 -19.5t50 -10t22.5 -30q0 -23 -21.5 -24.5t-35.5 -1.5q-37 0 -72.5 5t-70.5 5q-53 0 -108.5 -5t-108.5 -5h-23q-10 0 -20.5 2t-17.5 8t-7 20q0 6 4 10.5t8 8.5 q18 14 42 16t46.5 6t40 15.5t23.5 44.5q4 16 4 28v31q1 44 1 86v42v42q0 42 1 86q2 49 5 97t3 98q0 33 -5 65.5t-19.5 59t-40 44t-66.5 19.5h-108h-105q-49 0 -86 -1t-51 -1q-6 -6 -9 -18.5t-4 -25.5t0 -27.5t1 -22.5q0 -139 -1 -276.5t-1 -276.5q0 -45 14 -67.5t36.5 -34 t53.5 -14.5t66 -9q8 -8 8 -23q0 -16 -10 -18l-3 -6q-16 -8 -38 -8q-39 0 -78 6t-78 6q-59 0 -118.5 -6t-119.5 -6q-10 0 -31.5 2t-21.5 18z" />
<glyph unicode="G" horiz-adv-x="1261" d="M47 4q0 29 24.5 35t55.5 13t55.5 28.5t24.5 81.5v588q0 27 -6 55q-49 6 -97 6q-16 0 -36.5 4t-20.5 27q0 8 1 19t5 20q6 10 25.5 14t43 6t47.5 5t36 9q6 80 10 163t25 161q18 78 55 148.5t90 124t123 84.5q66 28 144 28h10q61 -2 110 -15.5t84 -52.5q45 16 83 29.5 t50 18.5q10 -6 12 -9q0 -29 1.5 -55.5t1.5 -54.5q0 -334 -1.5 -663.5t-1.5 -663.5q0 -68 36 -85.5t91 -23.5q4 -4 9.5 -3t9.5 1q33 0 33 -31q0 -23 -21 -28q-4 -2 -10 -2h-8q-47 0 -95.5 5t-95.5 5q-59 0 -116.5 -6t-116.5 -6q-10 0 -30.5 3t-20.5 19q0 27 12 30t39 11 q35 10 65.5 23.5t44.5 50.5q6 16 8.5 40.5t2.5 43.5q0 274 1 543.5t1 543.5q0 76 -24.5 127t-65.5 79t-94 33q-13 1 -27 1q-39 0 -80 -10q-66 -16 -102.5 -74.5t-55 -132.5t-24 -149.5t-5.5 -129.5v-28t1.5 -39t3.5 -39.5t8 -24.5h229q10 0 21.5 -3t17.5 -9q0 -10 1 -18.5 t1 -18.5q0 -25 -10 -39q-23 -4 -47 -4h-45h-82q-41 0 -80 -2q-6 -6 -9 -18.5t-4 -25.5t0 -27.5t1 -22.5q0 -139 -1 -276.5t-1 -276.5q0 -45 14 -67.5t36.5 -34t53.5 -14.5t66 -9q8 -8 8 -23q0 -16 -10 -18l-3 -6q-16 -8 -38 -8q-39 0 -78 6t-78 6q-59 0 -118.5 -6t-119.5 -6 q-10 0 -31.5 2t-21.5 18z" />
<glyph unicode="H" horiz-adv-x="1771" d="M47 4q0 29 24.5 35t55.5 13t55.5 28.5t24.5 81.5v588q0 27 -6 55q-49 6 -97 6q-16 0 -36.5 4t-20.5 27q0 8 1 19t5 20q6 10 25.5 14t43 6t47.5 5t36 9q6 80 10 163t25 161q18 78 55 147.5t90 123t123 84t154 30.5q139 -2 198.5 -43t69.5 -115q57 72 136 116q76 42 172 42 h9q43 0 87 -7t79 -23.5t57.5 -44t24.5 -72.5q6 -25 -7 -47.5t-35.5 -36t-48.5 -15.5t-42 13q-10 8 -18.5 30.5t-28 44t-61.5 39t-119 17.5q-66 0 -103 -56.5t-55.5 -134.5t-23.5 -159.5t-5 -135.5v-28t1 -39t3 -39.5t9 -24.5h405q31 0 58.5 10.5t49 19.5t36 14t20.5 -1 q4 -4 8 -5t4 -5q0 -31 -1 -60.5t-3 -60.5q-2 -61 -3 -123.5t-1 -124.5q0 -76 1 -150.5t3 -150.5q0 -34 -1 -70v-15q0 -28 3 -56q4 -43 27.5 -57.5t51.5 -19.5t50.5 -10t22.5 -30q0 -23 -21.5 -24.5t-36.5 -1.5q-37 0 -72.5 5t-70.5 5q-53 0 -108.5 -5t-108.5 -5h-23 q-10 0 -20 2t-17.5 8t-7.5 20q0 6 4 10.5t9 8.5q18 14 41.5 16t46 6t40 15.5t23.5 44.5q4 16 4 28v31q1 44 1 86v42v42q0 42 1 86q2 49 5 97t3 98q0 33 -5 65.5t-19 59t-40 44t-67 19.5l-286 -2q-6 -6 -9.5 -18.5t-4.5 -25.5t0 -27.5t1 -22.5q0 -139 -1 -276.5t-1 -276.5 q0 -45 14.5 -67.5t37 -34t53 -14.5t65.5 -9q8 -8 8 -23q0 -16 -10 -18l-2 -6q-16 -8 -39 -8q-39 0 -77.5 6t-77.5 6q-59 0 -119 -6t-119 -6q-10 0 -31.5 2t-21.5 18q0 29 24.5 35t55 13t55.5 28.5t25 81.5v588q0 27 -7 55q-49 6 -96 6q-18 0 -64 1t-98 1h-92t-55 -2 q-6 -6 -9 -18.5t-4 -25.5t0 -27.5t1 -22.5q0 -139 -1 -276.5t-1 -276.5q0 -45 14 -67.5t36.5 -34t53.5 -14.5t66 -9q8 -8 8 -23q0 -16 -10 -18l-3 -6q-16 -8 -38 -8q-39 0 -78 6t-78 6q-59 0 -118.5 -6t-119.5 -6q-10 0 -31.5 2t-21.5 18zM362 1008q0 -18 1.5 -39t3.5 -39.5 t8 -24.5l416 10q6 80 10 163t24 161q6 27 14.5 52.5t18.5 51.5q-41 4 -58.5 19.5t-27.5 35t-18.5 42t-30 40t-61 30t-113.5 12.5q-66 0 -102.5 -56.5t-55 -134.5t-24 -159.5t-5.5 -135.5v-28z" />
<glyph unicode="I" horiz-adv-x="1847" d="M47 4q0 29 24.5 35t55.5 13t55.5 28.5t24.5 81.5v588q0 27 -6 55q-49 6 -97 6q-16 0 -36.5 4t-20.5 27q0 8 1 19t5 20q6 10 25.5 14t43 6t47.5 5t36 9q6 80 10 163t25 161q18 78 55 147.5t90 123t123 84t154 30.5q139 -2 198.5 -43t69.5 -115q4 4 6 7.5t6 5.5 q55 67 131 107q72 39 165 38h9q61 -2 110.5 -15.5t84.5 -52.5q45 16 84 29.5t51 18.5q10 -6 12 -9v-110q0 -334 -1 -663.5t-1 -663.5q0 -68 36 -85.5t91 -23.5q4 -4 9.5 -3t9.5 1q32 0 32 -31q0 -23 -20 -28q-4 -2 -10 -2h-9q-47 0 -95 5t-95 5q-59 0 -116.5 -6t-116.5 -6 q-10 0 -31 3t-21 19q0 27 12.5 30t39.5 11q35 10 65.5 23.5t44.5 50.5q6 16 8 40.5t2 43.5q0 274 1 543.5t1 543.5q0 76 -24.5 127t-65.5 79t-93 33q-14 1 -28 1q-39 0 -79 -10q-66 -16 -103 -74.5t-55.5 -132.5t-23.5 -149.5t-5 -129.5v-28t1 -39t3 -39.5t9 -24.5h229 q10 0 21.5 -3t17.5 -9q0 -10 1 -18.5t1 -18.5q0 -25 -10 -39q-23 -4 -47 -4h-46h-81q-41 0 -80 -2q-6 -6 -9.5 -18.5t-4.5 -25.5t0 -27.5t1 -22.5q0 -139 -1 -276.5t-1 -276.5q0 -45 14.5 -67.5t37 -34t53 -14.5t65.5 -9q8 -8 8 -23q0 -16 -10 -18l-2 -6q-16 -8 -39 -8 q-39 0 -77.5 6t-77.5 6q-59 0 -119 -6t-119 -6q-10 0 -31.5 2t-21.5 18v4q0 6 4 15q0 2 4 6t12 8q16 8 40 11t46.5 13.5t38 32t15.5 68.5v588q0 27 -7 55q-49 6 -96 6h-309q-6 -6 -9 -18.5t-4 -25.5t0 -27.5t1 -22.5q0 -139 -1 -276.5t-1 -276.5q0 -45 14 -67.5t36.5 -34 t53.5 -14.5t66 -9q8 -8 8 -23q0 -16 -10 -18l-3 -6q-16 -8 -38 -8q-39 0 -78 6t-78 6q-59 0 -118.5 -6t-119.5 -6q-10 0 -31.5 2t-21.5 18zM362 1008q0 -18 1.5 -39t3.5 -39.5t8 -24.5l416 10q6 80 10 163t24 161q6 27 14.5 52.5t18.5 51.5q-41 4 -58.5 19.5t-27.5 35 t-18.5 42t-30 40t-61 30t-113.5 12.5q-66 0 -102.5 -56.5t-55 -134.5t-24 -159.5t-5.5 -135.5v-28z" />
<glyph unicode="J" horiz-adv-x="552" d="M6 -510q4 8 10.5 15.5t12.5 15.5q35 41 68.5 79t60.5 87q29 55 41 112.5t16 117.5q3 48 3 96v25q-1 60 -1 120q0 111 1 222.5t1 221.5q0 23 -1 58.5t-11 54.5q-12 25 -33.5 35t-42 15t-36 10t-15.5 22q0 12 10 22q12 8 52 28.5t85 43t83 40t48 17.5q12 0 19 -8 q0 -14 1 -27.5t1 -27.5q0 -184 -1 -363.5t-1 -363.5q0 -66 -3 -135.5t-12 -135.5q-16 -129 -91.5 -224t-176.5 -167q-10 -8 -31.5 -21.5t-35.5 -13.5h-4q-4 8 -7.5 15.5t-9.5 13.5z" />
<glyph unicode="K" horiz-adv-x="1529" d="M43 -408q0 4 31.5 50.5t84 121t121 169t142.5 192.5t147.5 193.5t137.5 170.5q-63 82 -137 176.5t-147 188.5t-140.5 181t-119.5 154.5t-83 108.5t-31 43q0 12 17.5 18.5t42 8.5t52 1t50.5 -1q92 0 205.5 -2t231.5 -3t230.5 -3t204.5 -2h37q25 0 48.5 2t45 6t33.5 12 q23 2 34 6.5t19.5 7.5t18.5 5t33 2q29 0 40 -36t27 -81q16 -53 32.5 -106.5t29.5 -106.5q1 -4 1 -7q0 -10 -14 -14q-20 -6 -30 -6q-12 0 -26.5 17.5t-28 42t-29 49.5t-29.5 41q-47 51 -100.5 67.5t-118.5 20.5q-61 2 -142 4t-166 3t-167 1h-142q-6 0 -26.5 1t-42.5 1 q-20 0 -35.5 -3t-13.5 -11q6 -20 42 -73.5t80 -115t86 -118t60 -80.5q6 -10 23.5 -35t42 -58.5t55.5 -74.5t67 -84q35 -18 74 -47t57 -65q9 -18 8 -37q0 -20 -8 -40q-18 -40 -96 -83q-115 -135 -180.5 -223.5t-87.5 -116.5q-16 -23 -51 -69t-70 -98.5t-62.5 -99.5t-31.5 -69 q0 -16 13.5 -24.5t31.5 -10.5t39.5 -1t36.5 1q90 0 199.5 1t199.5 1q72 0 156 3t155 24q51 20 79 56t57 83q12 23 21 50.5t19.5 48t25.5 25.5t40 -16q6 -35 6 -65q0 -35 -9 -71t-15 -70q-4 -25 -7.5 -52.5t-11.5 -51t-24.5 -38t-49.5 -14.5q-78 0 -155.5 4t-155.5 4h-178 q-186 0 -388 -7t-388 -7h-2q-31 0 -31 30z" />
<glyph unicode="L" horiz-adv-x="1284" d="M72 14q0 29 20.5 36t51 9t65.5 7.5t63 31.5q25 25 33 83.5t9 130.5v28q0 58 -3 120q-4 77 -6 138l-80 -41q-8 -4 -24.5 -11t-31.5 -13.5t-27.5 -9.5t-12.5 1q-8 10 -16 30t-31 69q-2 6 10 15t29.5 19.5t37 18.5t29.5 14q29 12 58.5 29.5t58.5 34.5v475q0 23 -2 46t-6 46 q-8 45 -44 60.5t-76 20.5t-71.5 10t-31.5 34t23.5 33t45.5 4q72 0 140.5 -7.5t140.5 -7.5q76 0 145.5 4.5t153.5 4.5q18 -14 18 -33q0 -25 -23.5 -32t-56 -9t-65.5 -6t-53 -21q-14 -12 -21.5 -32.5t-10.5 -43t-4 -45t-1 -38.5q0 -92 -1 -182.5t-1 -182.5q59 29 115.5 57.5 t95.5 46.5q10 4 25.5 -28.5t35.5 -73.5q4 -12 -26.5 -28.5t-53.5 -26.5l-194 -101v-213v-77q0 -39 1 -82t5 -83t12 -72t23 -44q51 -39 119 -47q32 -4 62 -4q34 0 68 5q62 9 113 27.5t70 30.5q33 18 68.5 65.5t66.5 96.5t53.5 89t28.5 46q18 14 40.5 9t31.5 -23 q-51 -82 -80 -163t-45.5 -145.5t-27.5 -104.5t-26 -40q-133 0 -278 18.5t-279 18.5q-68 0 -118 -4t-96 -8t-96 -8t-118 -4q-12 0 -20 10t-8 22z" />
<glyph unicode="M" horiz-adv-x="2017" d="M61 10q0 33 29 40t67 11.5t73.5 16.5t52.5 53q12 31 18 68t10 71q23 242 41.5 488t18.5 487q0 72 -33 106.5t-109 49.5q-8 2 -29.5 5t-43 9t-38 15.5t-16.5 19.5q0 23 22.5 26t39.5 3q35 0 66.5 -4.5t66.5 -4.5q53 0 103.5 4.5t103.5 4.5q16 0 26.5 -1t20.5 -16 q39 -53 61.5 -119.5t49.5 -128.5q61 -143 123.5 -285.5t123.5 -287.5q14 -33 33 -81t37 -92t33.5 -75t25.5 -31t18.5 16.5t14.5 31.5q117 242 220.5 488.5t217.5 487.5q16 37 27.5 54.5t23 23.5t25.5 6h43h35q16 0 29.5 -9t21.5 -30.5t10 -64.5q-2 -23 -2 -41v-55v-105v-184 v-297v-444q0 -37 7.5 -82t42.5 -68q10 -6 34.5 -13t53 -14.5t55.5 -14.5t43 -15q12 -6 12 -23q0 -12 -9 -18t-22.5 -7t-27.5 -1h-21q-59 0 -119.5 7t-119.5 7q-66 0 -132.5 -7t-132.5 -7q-14 0 -39.5 4t-25.5 24q0 18 16.5 27.5t28.5 17.5q55 0 89 10.5t50.5 33t21.5 59.5 t5 88l4 682v49t-2 77t-5 73.5t-11 39.5q-8 -6 -17.5 -21t-17.5 -33.5t-15.5 -36t-11.5 -25.5q-94 -213 -185 -412t-179 -414q-10 -25 -24.5 -64.5t-32 -76.5t-34 -64.5t-28.5 -27.5t-20.5 8t-14.5 20.5t-10 24.5t-6 21q-68 193 -142.5 380t-161.5 369q-8 18 -31.5 75.5 t-51 121t-52 113t-34.5 49.5q-4 0 -8.5 -60.5t-6.5 -157t-4 -214t-3 -230.5t-2 -209t-1 -147q0 -35 17.5 -54.5t43 -28.5t56 -13.5t56.5 -9.5t43 -13.5t17 -28.5q0 -23 -25.5 -23.5t-39.5 -0.5q-53 0 -105.5 3t-105.5 3q-66 0 -130.5 -3t-129.5 -3q-12 0 -36 4t-24 20z" />
<glyph unicode="N" horiz-adv-x="1884" d="M29 1442q0 18 21.5 28.5t35.5 10.5q45 0 88 -2t88 -2q35 0 66.5 2t66.5 2h31q18 0 59 -2q53 0 107.5 7t107.5 7h21q14 0 26.5 -3t20.5 -10t8 -20q0 -31 -31.5 -38t-70.5 -9t-71 -8t-32 -33q0 -14 15 -37q166 -197 332.5 -389t332.5 -389q51 -59 101.5 -123.5 t115.5 -134.5h11q6 23 8 78t2 110v101q2 160 2 319v320q0 29 -1 55.5t-7 52.5q-10 45 -48 56.5t-80 12.5t-76 5t-34 37q0 20 14.5 27.5t30.5 7.5q66 0 131.5 -4t130.5 -4q53 0 107.5 3t107.5 3q45 0 45 -35q0 -25 -25.5 -32t-58 -10t-65.5 -8t-47 -24q-12 -16 -19.5 -57 t-10.5 -87t-4 -89t-1 -64v-231q0 -111 1 -221.5t1 -223.5v-227q39 -31 69.5 -50.5t56.5 -33.5t48 -26.5t45 -24.5q0 -16 -13 -27.5t-28 -11.5q-37 2 -67.5 4t-63.5 2q-41 0 -77.5 -2t-77.5 -4h-23q-4 0 -22.5 23.5t-64.5 82t-146 172.5q-172 197 -340 392.5t-338 394.5 q-35 41 -71 89t-81 85q-6 -35 -6 -70q0 -111 2 -203t3 -190t3 -216t2 -277q0 -96 12.5 -138.5t38 -57.5t65.5 -17.5t97 -14.5q16 -4 31.5 -15t15.5 -32q0 -12 -12 -16t-23 -4q-59 0 -118.5 4t-118.5 4q-68 0 -135.5 -4t-136.5 -4q-16 0 -38 6t-22 28q0 18 15.5 26.5t38 11.5 t47 4t40.5 3q35 6 54.5 24.5t29 45.5t11.5 57.5t2 59.5q4 244 8 484.5t4 484.5q0 33 -3 62.5t-17.5 52t-41 39t-73.5 24.5q-12 2 -35 3t-45.5 5t-38.5 12t-16 25z" />
<glyph unicode="O" horiz-adv-x="1884" d="M29 1442q0 18 21.5 28.5t35.5 10.5q45 0 88 -2t88 -2q35 0 66.5 2t66.5 2q37 0 56.5 -9.5t37 -28t38 -45t59.5 -63.5q166 -197 332.5 -389t332.5 -389q51 -59 101.5 -123.5t115.5 -134.5h11q6 23 8 90.5t2 198.5q2 160 2 319v320q0 29 -1 55.5t-7 52.5q-10 45 -48 56.5 t-80 12.5t-76 5t-34 37q0 20 14.5 27.5t30.5 7.5q66 0 131.5 -4t130.5 -4q53 0 107.5 3t107.5 3q45 0 45 -35q0 -25 -25.5 -32t-58 -10t-65.5 -8t-47 -24q-12 -16 -19.5 -57t-10.5 -87t-4 -89t-1 -64v-231q0 -111 1 -221.5t1 -223.5v-227q39 -31 69.5 -50.5t56.5 -33.5 t48 -26.5t45 -24.5q0 -16 -13 -27.5t-28 -11.5q-37 2 -67.5 4t-63.5 2q-41 0 -77.5 -2t-77.5 -4h-23q-4 0 -22.5 23.5t-64.5 82t-146 172.5q-172 197 -340 392.5t-338 394.5q-35 41 -71 89t-81 85q-6 -35 -6 -70q0 -111 2 -203t3 -190t3 -216t2 -277q0 -96 12.5 -138.5 t38 -57.5t65.5 -17.5t97 -14.5q16 -4 31.5 -15t15.5 -32q0 -12 -12 -16t-23 -4q-59 0 -118.5 4t-118.5 4q-68 0 -135.5 -4t-136.5 -4q-16 0 -38 6t-22 28q0 18 15.5 26.5t38 11.5t47 4t40.5 3q35 6 54.5 24.5t29 45.5t11.5 57.5t2 59.5q4 244 8 484.5t4 484.5q0 33 -3 62.5 t-17.5 52t-41 39t-73.5 24.5q-12 2 -35 3t-45.5 5t-38.5 12t-16 25z" />
<glyph unicode="P" horiz-adv-x="1652" d="M53 -362q0 18 20.5 25t48.5 12.5t58.5 12.5t50.5 25q12 10 19.5 34t9.5 51.5t2 54.5v43l2 1003q0 53 1 104.5t1 102.5v39t-3 51.5t-8 49t-13 32.5q-23 23 -53.5 28t-59.5 7t-48.5 10t-19.5 37q0 12 9.5 18t21.5 7t25 1h22q59 0 119.5 -6t120.5 -6q10 0 8 0l3 1t20 1 q16 0 59 1t121 1h211q33 0 94 1t156.5 2t226.5 2t307 1q4 -4 8 -15t4 -17q0 -29 -21.5 -35t-49.5 -6q-55 0 -86 -8.5t-45.5 -27t-16.5 -45t-2 -63.5q0 -129 -3 -256t-3 -256v-809q0 -33 5 -73.5t30 -63.5q18 -16 50 -22t61.5 -11.5t52 -11.5t22.5 -24q0 -31 -29.5 -34 t-60.5 -3q-57 0 -114.5 6t-114.5 6q-61 0 -110.5 -7t-110.5 -7h-29q-14 0 -27.5 3t-22.5 11t-9 25q0 18 20.5 25t48 12.5t58 12.5t51.5 25q12 10 19 34t9 51.5t2 54.5v43l3 979q0 53 1 104t1 102v39t-3.5 51.5t-8.5 49t-13 32.5q-29 27 -66.5 30t-66.5 7q-68 -4 -135.5 -5 t-125 -2t-95.5 -1h-46q-55 0 -85.5 -8t-45 -26.5t-16.5 -45t-2 -63.5q0 -129 -3 -256t-3 -256v-785q0 -33 5 -73.5t30 -63.5q18 -16 50 -22.5t61.5 -11.5t52 -11t22.5 -24q0 -31 -29.5 -34t-60.5 -3q-57 0 -114.5 6t-115.5 6q-61 0 -110 -7t-111 -7h-28q-14 0 -27.5 3 t-23 11t-9.5 25z" />
<glyph unicode="Q" horiz-adv-x="1812" d="M123 723q0 170 57.5 315.5t160.5 252t244.5 167t309.5 60.5q162 0 306.5 -56.5t253 -158t172 -242.5t63.5 -313q0 -109 -31 -210.5t-87 -189.5t-133 -161.5t-169 -127.5q80 -49 211 -105t285.5 -111.5t319.5 -105.5t313.5 -89t268 -61.5t183.5 -22.5q106 0 227 17.5 t232.5 42t202.5 48t141 35.5q8 2 14 -8t8 -23q1 -10 1 -19v-9q-1 -15 -7 -21q-16 -20 -66.5 -41.5t-122 -43t-156.5 -41t-170 -35t-162 -24.5t-132 -9q-96 0 -222 21.5t-268.5 57t-294 81t-296 94.5t-274.5 96t-230 86t-163.5 65.5t-74.5 32.5q-25 -6 -42 -11t-34.5 -8 t-36 -4t-42.5 -1q-166 0 -306.5 58t-240.5 162.5t-156.5 247t-56.5 312.5zM353 893q-2 -30 -2 -59q0 -95 18 -185q20 -121 70 -242.5t132 -214t199 -139.5q70 -28 155 -28q55 0 117 12q119 25 203 108.5t133 199.5t64 247q6 55 6 108q0 72 -12 140q-25 131 -80.5 249.5 t-140.5 203.5t-199 125q-70 24 -150 24q-52 0 -108 -10q-137 -27 -223 -109t-130.5 -192.5t-51.5 -237.5z" />
<glyph unicode="S" horiz-adv-x="1067" d="M94 1104q0 98 36 175t97.5 129t144.5 80t175 28q43 0 96 -23t90 -45q20 -12 32.5 -1t23 31.5t25.5 39t46 18.5q14 0 18.5 -20.5t4.5 -49.5t-3 -59.5t-3 -52.5q1 -24 1 -47q0 -29 -2 -59q-2 -54 -6 -107q-4 -18 -10 -24.5t-14 -6.5t-16.5 2t-14.5 2q-12 0 -20.5 18.5 t-14.5 44t-12 53t-18 48.5q-33 78 -96.5 121t-129.5 43q-53 0 -101 -16.5t-84 -47t-56.5 -76t-20.5 -100.5q0 -86 56.5 -150.5t138.5 -114.5t173 -93t161 -88q86 -57 134 -149.5t50 -196.5q0 -113 -36 -198t-100.5 -142.5t-153.5 -87t-196 -31.5q-39 0 -72.5 9t-63 21.5 t-55.5 22.5t-48 10q-25 0 -36 -14t-21.5 -30.5t-24.5 -30t-45 -13.5q-14 0 -18.5 25.5t-4.5 60.5t3 72t3 59q0 53 1.5 96.5t5.5 96.5q2 18 9 24.5t15 6.5t15.5 -2.5t13.5 -2.5q12 0 21.5 -17t16.5 -43t13 -54.5t16 -48.5q18 -41 48 -72t67 -52.5t79 -32.5t83 -11 q61 0 113.5 19.5t91.5 56t60.5 89t21.5 115.5q0 96 -52.5 162t-130 117t-169 96t-169 101.5t-130 131t-52.5 185.5zM295 1972q0 15 16 15h2q10 -2 35 -32t55.5 -68t60.5 -74.5t52 -51.5q23 14 50.5 50t54 73t52.5 65.5t46 28.5q12 0 12 -14q0 -6 -13 -33.5t-34.5 -67.5 t-47.5 -85t-49.5 -85t-43 -68t-27.5 -34q-16 8 -20 17q-59 96 -113.5 184t-83.5 164q-4 8 -4 16z" />
<glyph unicode="T" horiz-adv-x="1257" d="M72 20q0 18 20.5 25.5t48 12.5t58 12.5t51.5 25.5q12 10 19 34t9.5 51.5t2.5 54.5v43l2 692q0 53 1 104t1 103v43t-3 59.5t-8.5 57t-13.5 36.5q-23 23 -53.5 28t-59 7t-48 10t-19.5 37q0 12 9 18.5t21.5 7.5t24.5 1h23q59 0 119.5 -6.5t119.5 -6.5q29 0 59.5 3.5 t59.5 3.5h178q4 -4 8.5 -14.5t4.5 -16.5q0 -29 -21.5 -35t-50.5 -6q-55 0 -86 -8t-45.5 -26.5t-16.5 -45.5t-2 -63v-113h129q111 0 211.5 -25.5t176 -79t120.5 -136.5t45 -195q0 -94 -38.5 -174t-104.5 -137.5t-155 -89t-187 -31.5q-35 0 -42 5t-22 15q-4 4 -9 15.5t-6 23.5 t2 21.5t13 9.5q8 -2 11 -2q74 2 134 27.5t102 70.5t65.5 106.5t23.5 135.5q0 70 -21.5 134t-65.5 113.5t-109.5 80t-151.5 34.5q-23 0 -49.5 -3t-44.5 -19q-20 -18 -26.5 -60.5t-6.5 -79.5v-682q0 -33 5 -73.5t30 -63.5q18 -16 50 -22.5t61.5 -11.5t52 -11.5t22.5 -24.5 q0 -31 -29.5 -33.5t-60.5 -2.5q-57 0 -114.5 6t-114.5 6q-61 0 -110.5 -7t-110.5 -7h-29q-14 0 -27.5 3t-22.5 11t-9 24z" />
<glyph unicode="V" horiz-adv-x="1318" d="M51 47q0 26 27 74q6 10 17 36.5t24.5 57.5t25 60.5t17.5 43.5q43 111 84 208.5t86 207.5q76 186 147.5 370.5t147.5 371.5q4 12 9 19t21 7q14 0 22.5 -11t12.5 -22q47 -117 96.5 -237.5t96.5 -237.5q86 -219 167 -436t169 -422q25 -47 37 -75q8 -18 8 -30q0 -8 -2 -12 q-6 -14 -36 -17t-89 -3h-109t-184 1q-52 0 -107.5 0.5t-114 -0.5t-112.5 -1t-106 1q-102 1 -179 1h-92q-10 0 -30.5 -1t-36.5 8q-18 10 -17 38zM231 147v-6q1 -26 15 -38q16 -13 60 -17q29 -3 72 -3q21 0 46 1q74 2 188 2q96 0 172 -4q43 -2 78 -2q26 0 47 1q49 3 71 17 q15 9 14 27q0 9 -3 20q-10 33 -38.5 116t-67.5 188.5t-83 222t-83 216t-70 168t-41 81.5q-2 2 -4 2q-4 -1 -9 -7q-7 -10 -15.5 -25t-13.5 -29.5t-7 -16.5q-12 -29 -41 -103.5t-64.5 -172t-74.5 -203t-72 -197.5t-54.5 -158t-21.5 -80z" />
<glyph unicode="X" horiz-adv-x="1550" d="M49 8q0 4 34 46t88 110.5t126 156t147.5 179.5t150.5 183t137.5 166t106.5 129t58 73q14 18 53 60t81 89t76 88t40 55q4 4 10 15.5t8 17.5q2 8 -13 11.5t-38 3.5q-20 0 -40.5 -1t-26.5 -1h-144q-80 0 -165 -1.5t-165.5 -3.5t-142.5 -4q-66 -4 -119 -20.5t-100 -67.5 q-16 -16 -30.5 -40.5t-28 -49t-27.5 -42t-27 -17.5q-10 0 -29.5 5t-13.5 21q12 53 28.5 106.5t33.5 106.5q16 45 27 81t40 36q23 0 33 -2t18.5 -5t19.5 -7t34 -6q12 -8 33.5 -12.5t45 -6.5t46.5 -2h39q92 0 204.5 2t230.5 3t231.5 3t205.5 2q23 0 50.5 1t52 -1t42 -8 t17.5 -18q0 -2 -35 -44t-93.5 -109.5t-132 -154.5t-153.5 -179.5t-158.5 -183.5t-143 -168t-111 -131t-60.5 -73q-16 -23 -51 -62.5t-70 -83.5t-62.5 -85t-31.5 -64q0 -16 13.5 -24t32 -10t40 -1t35.5 1q90 0 199.5 1t199.5 1q72 0 156 3t156 23q51 20 78.5 56t56.5 84 q12 23 21 50t19.5 47.5t26 26t39.5 -15.5q6 -35 6 -65q0 -35 -9 -71t-15 -71q-4 -25 -7 -52.5t-11.5 -51t-25 -37.5t-48.5 -14q-78 0 -156 4t-156 4h-178q-186 0 -388 -7.5t-388 -7.5q-33 0 -33 31zM606 1921q0 14 15 14h4q10 -2 34.5 -31.5t55 -67.5t60.5 -75t52 -51 q23 14 50.5 50t54 73t52.5 65.5t46 28.5q12 0 12 -14q0 -6 -13 -34t-34.5 -67.5t-47 -85t-49.5 -85t-43 -67.5t-28 -34q-16 8 -20 16q-59 96 -113.5 184.5t-83.5 164.5q-4 8 -4 16z" />
<glyph unicode="Y" horiz-adv-x="1603" d="M20 1458q0 20 15 22.5t31 2.5q57 0 112 -8.5t113 -8.5q78 0 156.5 7.5t158.5 7.5q10 0 25.5 -10.5t15.5 -20.5q0 -31 -28.5 -36t-62.5 -6t-62.5 -6t-28.5 -34q0 -23 19.5 -57.5t45 -72.5t53 -74t46.5 -60q49 -72 98 -142.5t102 -136.5q6 -8 11.5 -15t15.5 -11q6 2 13.5 8 t11.5 10q12 12 43.5 54t73.5 98.5t87 121t83 120t62.5 94t24.5 47.5q0 35 -28.5 44t-62.5 11t-62.5 7t-28.5 34q0 25 11.5 28t31.5 3q47 0 94 -6.5t95 -6.5q53 0 105 7.5t106 7.5q29 0 52 -11q15 -6 15 -20q0 -7 -4 -16q-8 -16 -27.5 -21.5t-45 -9.5t-52.5 -14.5t-49 -36.5 q-76 -88 -146.5 -180.5t-142.5 -184.5q-33 -41 -72.5 -87t-75.5 -94t-59.5 -97.5t-23.5 -94.5v-407q0 -55 16.5 -85t41 -43t54 -14.5t57 -2.5t48 -6t28.5 -25q0 -18 -8 -32.5t-30 -14.5q-80 0 -161 7t-161 7q-74 0 -146.5 -7t-146.5 -7q-6 0 -14 2t-8 12q-10 33 13.5 43 t58 15t72.5 11.5t60 30.5q10 12 16.5 40t9.5 64t4 76.5t1 77.5v181q0 63 -2 106t-26 78q-109 160 -219.5 313.5t-221.5 311.5q-23 33 -57.5 47t-66 21t-54.5 14.5t-23 29.5zM862 1587q10 25 33 74t47.5 101.5t48 99.5t37.5 71q10 16 20 21q2 1 5 1q9 0 22 -9 q14 -10 19.5 -13.5t10.5 -7.5t14 -10t28 -19q15 -6 15 -19q0 -16 -11 -26q-14 -16 -51 -61t-78 -96.5t-76 -92t-47 -47.5q-9 -6 -18 -6q-8 0 -15 6q-9 6 -9 16q0 7 5 17z" />
<glyph unicode="Z" horiz-adv-x="1507" d="M49 8q0 4 34 46t88 110.5t126 156t147.5 179.5t150.5 183t137.5 166t106.5 129t58 73q14 18 53 61t80 89t76 87t41 55q4 4 10 15.5t8 17.5q2 8 -13 11.5t-38 3.5q-20 0 -40.5 -1t-26.5 -1h-144q-59 0 -122.5 -1.5t-126 -2.5t-121 -2t-103.5 -3q-66 -4 -119 -20.5 t-100 -67.5q-16 -16 -30.5 -40.5t-28 -49t-27.5 -42t-27 -17.5q-10 0 -29.5 5t-13.5 21q12 53 28.5 106.5t33.5 106.5q16 45 27 81t40 36q23 0 33 -2t18.5 -5t19.5 -7t34 -6q18 -12 55 -16.5t70 -4.5h39q92 0 204.5 2t230.5 3t231.5 3t205.5 2q20 0 51 5.5t56.5 7.5t43 -6.5 t11.5 -32.5q0 -2 -35 -44t-93.5 -109.5t-133 -154.5t-153.5 -179.5t-157.5 -183.5t-143 -168t-111 -131t-60.5 -73q-16 -20 -45 -55t-61.5 -77t-63.5 -86t-49 -83q84 -49 213 -107.5t279.5 -115.5t310 -111.5t303 -95.5t258.5 -65.5t178 -24.5q106 0 231 22.5t241 53.5 t211 59.5t144 40.5q8 2 14.5 -8t8.5 -24q1 -9 1 -18v-9q-1 -14 -7 -21q-14 -18 -70.5 -44.5t-134.5 -53.5t-172 -53.5t-186.5 -47t-174 -32.5t-137.5 -12q-113 0 -256 27.5t-298.5 72.5t-313.5 101.5t-298 113.5t-253 109.5t-178 91.5q-12 -2 -25.5 -19.5t-28 -37t-29.5 -32 t-32 -3.5q-8 4 -29.5 25.5t-44 47t-40 49t-17.5 31.5z" />
<glyph unicode="a" horiz-adv-x="1431" d="M96 172q0 45 23.5 82t59.5 66.5t78 53t79 42.5q68 35 128 52t134 36v143q0 84 -31.5 138.5t-124.5 54.5q-61 0 -98 -19.5t-57.5 -46t-29.5 -53.5t-13 -41q-10 -33 -43 -56.5t-72 -23.5q-23 0 -27 19.5t-4 35.5q0 49 41 99.5t100.5 92.5t129 68.5t127.5 26.5q14 0 35.5 -2 t44 -7t43 -11.5t32.5 -12.5q55 -31 76 -75q47 53 112.5 84.5t151.5 31.5q123 0 210 -52t124 -175q8 -27 13.5 -53.5t7.5 -53.5q0 -10 -3.5 -21t-13.5 -13q-6 0 -18.5 -4.5t-66.5 -16.5t-167.5 -36.5t-322.5 -67.5q2 -82 20.5 -150.5t57 -118t102 -77t156.5 -27.5 q39 0 68.5 6t55 18.5t51 31t56.5 40.5q4 2 16 2q14 0 15 -12q0 -10 -10.5 -26.5t-26 -33t-30.5 -30.5t-23 -21q-63 -53 -123 -76.5t-142 -23.5q-131 0 -220 61.5t-136 163.5l-51 -57q-23 -31 -57.5 -59.5t-75.5 -52t-86 -37t-86 -13.5q-104 0 -146.5 57.5t-42.5 149.5z M262 203q0 -57 26.5 -91t92.5 -34q43 0 88 20.5t74 51.5q8 8 21.5 23t25.5 31.5t20 33t2 26.5q-10 41 -13 82t-3 86q-18 -4 -44 -11t-52.5 -16.5t-50 -19.5t-39.5 -18q-27 -14 -53.5 -29.5t-47 -35t-34 -44t-13.5 -55.5zM774 543q86 20 155.5 39.5t141.5 35.5q49 12 79 28 t30 63q0 35 -15.5 68.5t-41 59t-58.5 42t-66 16.5q-43 0 -87 -22.5t-76 -67.5q-34 -45 -52 -111q-13 -46 -12 -101q0 -24 2 -50z" />
<glyph unicode="b" horiz-adv-x="1849" d="M47 4q0 29 24.5 35t55.5 13t55.5 28.5t24.5 81.5v588q0 27 -6 55q-49 6 -97 6q-16 0 -36.5 4t-20.5 27q0 8 1 19t5 20q6 10 25.5 14t43 6t47.5 5t36 9q6 80 10 163t25 161q18 78 55 148.5t90 124.5t123 84q66 29 144 28h10q72 -2 109.5 -15.5t72.5 -52.5q45 16 83 29.5 t50 18.5q10 -6 12 -9q0 -29 1 -55t1 -55q0 -41 2 -87t3 -117t3 -178.5t2 -268.5q37 25 68 46t62.5 36.5t67.5 24.5t81 9q96 0 178 -41t141.5 -108.5t93 -153.5t33.5 -178q0 -109 -42 -199t-114.5 -156.5t-166.5 -103.5t-199 -37q-20 0 -33.5 1t-25.5 4.5t-25.5 7.5t-32.5 10 q-16 4 -47.5 20.5t-74.5 16.5q-23 0 -36.5 -7.5t-24.5 -16.5t-21.5 -19t-26.5 -17q-14 -8 -24 -8q-9 -1 -15 5q-14 12 -4 34q12 49 17.5 109.5t8.5 127t4 137.5t1 138l-13 766q-1 154 -77 208q-54 38 -135 38q-33 0 -70 -6q-63 -10 -100 -67.5t-56.5 -133.5t-25 -153.5 t-5.5 -131.5v-28t1.5 -39t3.5 -39.5t8 -24.5h229q10 0 21.5 -3t17.5 -9q0 -10 1 -18.5t1 -18.5q0 -25 -10 -39q-23 -4 -47 -4h-45h-82q-41 0 -80 -2q-6 -6 -9 -18.5t-4 -25.5t0 -27.5t1 -22.5q0 -139 -1 -276.5t-1 -276.5q0 -45 14 -67.5t36.5 -34t53.5 -14.5t66 -9 q8 -8 8 -23q0 -16 -10 -18l-3 -6q-16 -8 -38 -8q-39 0 -78 6t-78 6q-59 0 -118.5 -6t-119.5 -6q-10 0 -31.5 2t-21.5 18zM1004 694v-381q0 -45 10 -86t39 -75q41 -47 86 -77t106 -30q72 0 128.5 32t94 84t57 116.5t19.5 130.5q0 84 -22.5 162.5t-68.5 140t-115.5 98.5 t-161.5 37q-51 0 -81 -13.5t-73 -41.5q-19 -17 -19 -42z" />
<glyph unicode="c" horiz-adv-x="1673" d="M102 424v12q0 98 32 186q34 94 95.5 167t148.5 116t193 43h7q-66 43 -95.5 89t-31.5 104v11q0 54 17 114q19 66 67.5 121t128 92t198.5 37q125 0 207 -44.5t131 -108t69.5 -133t22.5 -120.5q2 -37 3 -42t1 -13v-35v-113q18 -4 43 -5t51.5 0t52 2t44.5 1h20t35 -1t34 -3 t17 -4q12 -4 15.5 -16.5t3.5 -22.5t-4 -20.5t-6 -20.5q-8 -10 -31 -11t-33 -1q-41 0 -79 2t-77 2q-14 0 -39.5 -1t-35.5 -11q-10 0 -11 -9q-8 -14 -8 -36q-3 -56 -3 -112v-28q1 -70 1 -139q0 -61 -1 -122.5t-1 -123.5q0 -66 40 -104.5t106 -38.5q55 0 84.5 19.5t72.5 46.5 q23 0 23 -21q0 -33 -21.5 -58.5t-46.5 -43.5q-39 -29 -89 -42.5t-99 -13.5q-127 0 -180.5 72t-53.5 190q0 127 3 251t3 251q0 37 -22.5 48.5t-48 12.5t-48 2t-22.5 19q0 4 1 6t1 6q6 4 29.5 13.5t48.5 24t44 35t19 46.5q0 20 2 21q0 70 -8 153.5t-36.5 155.5t-84 121 t-147.5 49q-72 0 -124 -26.5t-86 -69.5t-49 -97.5t-15 -109.5q0 -16 3 -40t14 -51.5t32.5 -56t60.5 -51.5q16 -4 33.5 -11t36.5 -17q41 -16 70.5 -45t29.5 -72q2 -35 -20.5 -54.5t-55.5 -19.5t-59.5 24.5t-53 54.5t-57 54.5t-71.5 24.5q-76 0 -130.5 -38t-88 -97.5t-48 -130 t-14.5 -138.5q0 -74 18.5 -145.5t57.5 -127.5t97.5 -91t142.5 -35h45q53 0 100 22.5t88 55.5q10 8 19.5 15t19.5 13q6 -4 9 -11t3 -13q0 -18 -14 -36.5t-25 -33.5q-12 -16 -33.5 -33.5t-47 -34t-51 -28.5t-44.5 -18q-68 -23 -133 -23q-98 0 -174 38t-128 102.5t-81 148.5 t-29 178z" />
<glyph unicode="d" horiz-adv-x="1196" d="M102 444q0 104 36 197.5t100.5 162t153.5 109.5t196 41q72 0 140.5 -18t127.5 -57q-25 123 -75 234.5t-132 207.5l-106 -96q-4 -2 -17 -2q-10 0 -20 12t-10 22q0 4 2 11.5t4 11.5l86 109q-29 37 -69 68.5t-74.5 57t-60.5 45t-26 33.5q0 16 12.5 24.5t26.5 12.5 q23 -6 53.5 -23.5t66.5 -42t73 -51t69 -51.5l89 94q4 6 9 12.5t11 6.5q19 0 29 -10q10 -16 25.5 -28.5t15.5 -29.5q0 -8 -12.5 -21t-29 -28.5t-34 -31t-27.5 -27.5q94 -84 161 -187.5t107.5 -218t60 -237.5t19.5 -248q0 -104 -34.5 -202.5t-98 -175.5t-153.5 -123t-201 -48 q-109 0 -199 35t-155.5 98.5t-102.5 153.5t-37 198zM289 487q0 -72 16.5 -150.5t53 -146t97 -111.5t146.5 -46q78 0 133.5 35.5t90 93t50 126t15.5 134.5v10q0 59 -9.5 119.5t-28.5 117t-54 104.5t-88 83q-29 18 -61 23.5t-66 5.5q-80 0 -135.5 -37t-91 -95.5t-52 -128 t-16.5 -137.5z" />
<glyph unicode="e" horiz-adv-x="1462" d="M88 668q0 124 70 200q69 74 211 74h8q-72 45 -103.5 92t-33.5 107v11q0 54 17 114q19 66 67.5 121t128 92t198.5 37q125 0 207 -44.5t131 -108t69.5 -133t22.5 -120.5q2 -37 3 -42t1 -13v-35v-113q18 -4 43 -5t51.5 0t52 2t44.5 1h20t35 -1t34 -3t17 -4q12 -4 15.5 -16.5 t3.5 -22.5t-4 -20.5t-6 -20.5q-8 -10 -31 -11t-33 -1q-41 0 -79 2t-77 2q-14 0 -39.5 -1t-35.5 -11q-10 0 -11 -9q-8 -14 -8 -36q-3 -56 -3 -112v-28q1 -70 1 -139q0 -61 -1 -122.5t-1 -123.5q0 -66 40 -104.5t106 -38.5q55 0 84.5 19.5t72.5 46.5q23 0 23 -21 q0 -33 -21.5 -58.5t-46.5 -43.5q-39 -29 -89 -42.5t-99 -13.5q-127 0 -180.5 72t-53.5 190q0 127 3 251t3 251q0 37 -22.5 48.5t-48 12.5t-48 2t-22.5 19q0 4 1 6t1 6q6 4 29.5 13.5t48.5 24t44.5 35t19.5 46.5v21q2 0 2 -6v-11q0 -2 0 11q0 70 -8.5 154.5t-36 158.5 t-83 123t-149.5 49q-72 0 -124 -26.5t-86 -69.5t-49 -97.5t-15 -109.5q0 -16 3 -40t14 -51.5t32.5 -56t60.5 -51.5q25 -8 54.5 -21.5t58.5 -41.5q8 -8 14 -17.5t6 -21.5q0 -70 -6 -133q-2 -12 -5 -23.5t-19 -11.5q-12 0 -22.5 32.5t-32 70.5t-61.5 71t-112 33q-61 0 -93 -45 t-32 -107q0 -45 34 -80t86 -68.5t111.5 -67.5t112 -74t86 -89t33.5 -112q0 -49 -22 -101q-41 -98 -119 -141t-178 -43q-25 0 -70 5t-90 18.5t-78 35t-33 54.5l2 69q0 23 -1 45.5t-1 50.5q2 10 11.5 12.5t17.5 2.5q12 0 17.5 -8.5t9.5 -18.5q16 -37 33.5 -73.5t41 -64.5 t55 -45.5t79.5 -17.5q74 0 118.5 45.5t44.5 122.5q0 51 -32.5 87t-81.5 67t-106.5 58.5t-106.5 64.5t-82 85t-33 118z" />
<glyph unicode="f" horiz-adv-x="595" d="M47 4q0 29 24.5 35t55.5 13t55.5 28.5t24.5 81.5v588q0 27 -6 55q-49 6 -97 6q-16 0 -36.5 4t-20.5 27q0 8 1 19t5 20q6 10 25.5 14t43 6t47.5 5t36 9q6 80 10 163t25 161q18 78 55 148.5t90 124t123 84.5q66 28 144 28h10q43 0 87 -7t78.5 -23.5t57 -44t24.5 -72.5 q2 -8 2 -16q0 -16 -9 -31q-13 -23 -35.5 -36.5t-48 -15.5t-42.5 13q-10 8 -18 30.5t-27.5 44t-61.5 39t-120 17.5q-66 0 -101.5 -56.5t-53 -134.5t-21.5 -159.5t-4 -135.5v-114v-146q0 -78 -1 -163t-1 -167v-153v-129q0 -45 14 -67.5t36.5 -34t53.5 -14.5t66 -9q8 -8 8 -23 q0 -16 -10 -18l-3 -6q-16 -8 -38 -8q-39 0 -78 6t-78 6q-59 0 -118.5 -6t-119.5 -6q-10 0 -31.5 2t-21.5 18z" />
<glyph unicode="g" horiz-adv-x="1187" d="M47 4q0 29 24.5 35t55.5 13t55.5 28.5t24.5 81.5v588q0 27 -6 55q-49 6 -97 6q-16 0 -36.5 4t-20.5 27q0 8 1 19t5 20q6 10 25.5 14t43 6t47.5 5t36 9q6 80 10 163t25 161q18 78 55 148.5t90 124t123 84.5q66 28 144 28h10q51 -2 100 -10t86 -31q23 68 60.5 128.5 t89 105.5t114.5 71q59 23 130 23h11q43 0 87 -7.5t79 -23.5t57.5 -44t24.5 -73q2 -8 2 -15q0 -17 -9 -32q-13 -22 -35.5 -35.5t-48.5 -15.5t-42 12q-10 8 -18.5 31t-27.5 44.5t-61 38.5t-120 17q-66 0 -103 -56t-55 -134t-22.5 -160t-4.5 -135q0 -10 -1 -76.5t-1 -159.5 q0 -92 1 -192t6 -178q0 -139 -1.5 -276.5t-1.5 -276.5q0 -45 14.5 -67.5t37 -34t53.5 -14.5t65 -9q8 -8 9 -23q0 -16 -11 -18l-2 -6q-16 -8 -39 -8q-39 0 -77.5 6t-77.5 6q-59 0 -118.5 -6t-119.5 -6q-10 0 -31.5 2t-21.5 18q0 29 24.5 35t55.5 13t55.5 28.5t24.5 81.5v588 v26q0 14 -4 29q-12 0 -53.5 1t-79.5 1q-18 4 -31 16.5t-16 26.5t7.5 27.5t39.5 21.5q29 2 67.5 6t67.5 6q2 106 3 170t2 110t3 86t6 101q-12 10 -18.5 34t-30 48.5t-71.5 43t-142 18.5q-66 0 -102.5 -56.5t-55 -134.5t-24 -159.5t-5.5 -135.5v-92q0 -72 7 -227 q0 -139 -1 -276.5t-1 -276.5q0 -45 14 -67.5t36.5 -34t53.5 -14.5t66 -9q8 -8 8 -23q0 -16 -10 -18l-3 -6q-16 -8 -38 -8q-39 0 -78 6t-78 6q-59 0 -118.5 -6t-119.5 -6q-10 0 -31.5 2t-21.5 18z" />
<glyph unicode="h" horiz-adv-x="1820" d="M47 4q0 29 24.5 35t55.5 13t55.5 28.5t24.5 81.5v588q0 27 -6 55q-49 6 -97 6q-16 0 -36.5 4t-20.5 27q0 8 1 19t5 20q6 10 25.5 14t43 6t47.5 5t36 9q6 80 10 163t25 161q18 78 55 148.5t90 124.5t123 84q66 29 144 28h10q61 -2 110 -15.5t84 -52.5q45 16 83 29.5 t50 18.5q10 -6 12 -9q0 -29 1.5 -55.5t1.5 -54.5q0 -172 -1.5 -341t-1.5 -341q0 -6 1.5 -11.5t3.5 -11.5q35 31 68.5 61.5t70.5 54.5t79 38t93 14q92 0 147.5 -30.5t85 -83t37.5 -122t8 -145.5v-383q0 -10 2 -21t2 -22q0 -16 3.5 -35.5t15.5 -31.5q10 -10 29.5 -17.5 t40 -12.5t36 -10t19.5 -11q0 -12 -4 -17h-2q-4 -16 -11.5 -19t-23.5 -3q-45 0 -89 6t-89 6q-47 0 -91 -6t-92 -6q-18 0 -39.5 2t-21.5 26q0 20 23.5 23.5t52 9.5t52.5 27.5t24 81.5v510q0 43 -16.5 74.5t-44.5 51t-64.5 29.5t-75.5 10q-162 0 -227 -155q0 -135 -2.5 -268.5 t-2.5 -268.5q0 -43 17.5 -60.5t43 -22.5t54.5 -8t53 -17q4 -12 4 -19q0 -23 -16 -24.5t-33 -1.5q-47 0 -93 6t-93 6h-57q-27 0 -56 -4q-25 -2 -50 -5t-50 -3q-16 0 -28.5 3t-12.5 23q0 14 14.5 22.5t34 12.5t38.5 7t30 9q27 16 34 54.5t7 66.5l2 1110q0 76 -24.5 127 t-66.5 79q-43 28 -95 33q-14 1 -27 1q-39 0 -80 -10q-66 -16 -102.5 -74.5t-55 -132.5t-24 -149.5t-5.5 -129.5v-28t1.5 -39t3.5 -39.5t8 -24.5h229q10 0 21.5 -3t17.5 -9q0 -10 1 -18.5t1 -18.5q0 -25 -10 -39q-23 -4 -47 -4h-45h-82q-41 0 -80 -2q-6 -6 -9 -18.5t-4 -25.5 t0 -27.5t1 -22.5q0 -139 -1 -276.5t-1 -276.5q0 -45 14 -67.5t36.5 -34t53.5 -14.5t66 -9q8 -8 8 -23q0 -16 -10 -18l-3 -6q-16 -8 -38 -8q-39 0 -78 6t-78 6q-59 0 -118.5 -6t-119.5 -6q-10 0 -31.5 2t-21.5 18z" />
<glyph unicode="i" horiz-adv-x="641" d="M76 14q0 6 4 10.5t8 8.5q18 14 42 16t46.5 6t39.5 15.5t24 44.5q4 16 4 28v31q1 44 1 86v42v42q0 42 1 86q2 49 5 97t3 98q0 25 -3 59.5t-20 54.5q-10 12 -28.5 20.5t-35.5 15.5t-30.5 14.5t-13.5 17.5t12 19.5t29.5 15.5t34 11t24.5 7q14 4 41 18.5t54.5 30t50 27.5 t30.5 12q12 0 13 -10q0 -31 -1 -60.5t-3 -60.5q-2 -61 -3.5 -123.5t-1.5 -124.5q0 -76 1.5 -150.5t3.5 -150.5q0 -34 -1 -70v-15q0 -28 3 -56q4 -43 27.5 -57.5t51 -19.5t50 -10t22.5 -30q0 -23 -21.5 -24.5t-35.5 -1.5q-37 0 -73 5t-71 5q-53 0 -108 -5t-109 -5h-22 q-10 0 -20.5 2t-17.5 8t-7 20z" />
<glyph unicode="j" horiz-adv-x="1165" d="M47 4q0 29 24.5 35t55.5 13t55.5 28.5t24.5 81.5v588q0 27 -6 55q-49 6 -97 6q-16 0 -36.5 4t-20.5 27q0 8 1 19t5 20q6 10 25.5 14t43 6t47.5 5t36 9q6 80 10 163t25 161q18 78 55 148.5t90 124t123 84.5q66 28 144 28h10q43 0 87 -7t78.5 -23.5t57 -44t24.5 -72.5 q6 -25 -7 -47.5t-35.5 -36t-48 -15.5t-42.5 13q-10 8 -18 30.5t-27.5 44t-61.5 39t-120 17.5q-66 0 -102.5 -56.5t-55 -134.5t-24 -159.5t-5.5 -135.5v-28t1.5 -39t3.5 -39.5t8 -24.5h469q31 0 58.5 10.5t49 19.5t35.5 14t21 -1q4 -4 8 -5t4 -5q0 -31 -1 -60.5t-3 -60.5 q-2 -61 -3 -123.5t-1 -124.5v-411q0 -66 -3 -135.5t-12 -135.5q-16 -129 -92 -224t-176 -167q-10 -8 -31.5 -21.5t-35.5 -13.5h-5q-4 8 -7 15.5t-9 13.5q4 8 10 15.5t13 15.5q35 41 68.5 79t60.5 87q29 55 41 112.5t16 117.5q3 48 3 96v25q-1 60 -1 120l2 182v25v43t2 80 t6 137q0 33 -5 65.5t-19.5 59t-40 44t-66.5 19.5h-108h-105q-49 0 -86 -1t-51 -1q-6 -6 -9 -18.5t-4 -25.5t0 -27.5t1 -22.5q0 -139 -1 -276.5t-1 -276.5q0 -45 14 -67.5t36.5 -34t53.5 -14.5t66 -9q8 -8 8 -23q0 -16 -10 -18l-3 -6q-16 -8 -38 -8q-39 0 -78 6t-78 6 q-59 0 -118.5 -6t-119.5 -6q-10 0 -31.5 2t-21.5 18z" />
<glyph unicode="k" horiz-adv-x="1818" d="M47 4q0 29 24.5 35t55.5 13t55.5 28.5t24.5 81.5v588q0 27 -6 55q-49 6 -97 6q-16 0 -36.5 4t-20.5 27q0 8 1 19t5 20q6 10 25.5 14t43 6t47.5 5t36 9q6 80 10 163t25 161q18 78 55 148.5t90 124.5t123 84q66 29 144 28h10q61 -2 110 -15.5t84 -52.5q45 16 83 29.5 t50 18.5q10 -6 12 -9q0 -29 1.5 -55.5t1.5 -54.5q0 -238 -1.5 -473.5t-1.5 -470.5q2 -4 13 -4q16 0 49 18t72 46t78.5 61.5t72.5 64.5t54.5 54.5t21.5 31.5q0 18 -18.5 27.5t-42 15.5t-42 14.5t-18.5 26.5q0 16 19.5 20.5t31.5 4.5q68 0 136.5 -4.5t136.5 -4.5q27 0 52 3.5 t52 3.5q14 0 21 -2l14 -17q0 -20 -19.5 -32.5t-35.5 -16.5q-63 -10 -117.5 -35.5t-106 -59.5t-98.5 -74t-94 -79q-6 -4 -17.5 -13t-13.5 -18q4 -8 9.5 -15t11.5 -13v-2q41 -41 78.5 -83t76.5 -85q41 -45 85 -97.5t89 -99.5t91.5 -84t95.5 -49q18 -4 28.5 -13.5t10.5 -29.5 q0 -14 -20.5 -16t-28.5 -2q-47 0 -92.5 7t-90.5 7q-53 0 -106.5 -7t-106.5 -7h-14q-16 0 -30.5 4t-14.5 22q0 20 19.5 25.5t43 8.5t43 11t19.5 33q0 20 -17.5 45t-42 51.5t-51 51t-45.5 45.5q-12 14 -39.5 46.5t-57.5 67.5t-57.5 62.5t-39.5 31.5q-27 -6 -38.5 -1.5 t-11.5 -22.5v-275q0 -10 1 -26.5t2.5 -34.5t5.5 -33.5t10 -23.5q14 -18 35.5 -22.5t41 -6.5t34 -8t14.5 -25q0 -20 -19.5 -23t-33.5 -3q-39 0 -77 7t-79 7q-47 0 -93 -8t-93 -8h-9q-20 0 -41.5 5t-21.5 27q0 14 14.5 19.5t34.5 10.5t43 12t39 26q18 23 26.5 69t10.5 100 q1 27 1 54t-1 53q-2 54 -2 91v843q0 76 -24.5 127t-66.5 79q-43 28 -95 33q-14 1 -27 1q-39 0 -80 -10q-66 -16 -102.5 -74.5t-55 -132.5t-24 -149.5t-5.5 -129.5v-28t1.5 -39t3.5 -39.5t8 -24.5h229q10 0 21.5 -3t17.5 -9q0 -10 1 -18.5t1 -18.5q0 -25 -10 -39 q-23 -4 -47 -4h-45h-82q-41 0 -80 -2q-6 -6 -9 -18.5t-4 -25.5t0 -27.5t1 -22.5q0 -139 -1 -276.5t-1 -276.5q0 -45 14 -67.5t36.5 -34t53.5 -14.5t66 -9q8 -8 8 -23q0 -16 -10 -18l-3 -6q-16 -8 -38 -8q-39 0 -78 6t-78 6q-59 0 -118.5 -6t-119.5 -6q-10 0 -31.5 2 t-21.5 18z" />
<glyph unicode="l" horiz-adv-x="649" d="M-2 688q0 6 10 13q12 10 29.5 20t37 18.5t29.5 14.5q16 6 41 20t97 49v121q0 57 1 112.5t1 110.5v123q0 31 -3 67t-26 60q-8 8 -23.5 16.5t-31 16.5t-27.5 16.5t-12 18.5q0 6 4 14q2 4 40 19.5t84 33t88 31.5t54 19q10 -6 12 -9q0 -29 1.5 -55.5t1.5 -54.5v-152 q0 -70 -1.5 -137.5t-1.5 -138.5v-150q25 12 44.5 22.5t40 22t46 24.5t60.5 32q10 4 25.5 -29t35.5 -74q4 -12 -26.5 -28.5t-53.5 -26.5l-172 -92v-600q0 -68 36 -85.5t91 -23.5q4 -4 9.5 -3t9.5 1q33 0 33 -31q0 -23 -21 -28q-4 -2 -10 -2h-8q-47 0 -95.5 5t-95.5 5 q-59 0 -116.5 -6t-116.5 -6q-10 0 -30.5 3t-20.5 19q0 27 12 30t39 11q35 10 65.5 23.5t44.5 50.5q6 16 8.5 40.5t2.5 43.5v469l-99 -51q-8 -4 -24.5 -11.5t-31.5 -13.5t-27.5 -9t-12.5 1q-9 10 -17 30z" />
<glyph unicode="m" horiz-adv-x="1196" d="M102 444q0 104 36 197.5t100.5 162t153.5 109.5t196 41q72 0 140.5 -18t127.5 -57q-12 61 -31.5 121.5t-51.5 122t-77 127t-108 139.5q-29 33 -68 64.5t-74.5 58t-61.5 47t-26 34.5q0 16 12.5 24.5t26.5 12.5q45 -12 128 -66.5t210 -164.5q94 -84 161 -187.5t107.5 -218 t60 -237.5t19.5 -248q0 -104 -34.5 -202.5t-98 -175.5t-153.5 -123t-201 -48q-109 0 -199 35t-155.5 98.5t-102.5 153t-37 198.5zM289 487q0 -72 16.5 -150.5t53 -146t97 -111.5t146.5 -46q78 0 133.5 35.5t90 93t50 126t15.5 134.5v10q0 59 -9.5 119.5t-28.5 117t-54 104.5 t-88 83q-29 18 -61 23.5t-66 5.5q-80 0 -135.5 -37t-91 -95.5t-52 -128t-16.5 -137.5z" />
<glyph unicode="n" horiz-adv-x="1544" d="M70 788q0 18 20.5 25.5t48 12.5t58 12.5t51.5 25.5q12 10 19 34t9.5 51.5t2.5 54.5v43l2 145q0 27 0 20q0 -6 1 -18t1 -18t0 18v39t-3.5 51.5t-8.5 49t-13 32.5q-23 23 -53.5 28t-59 7t-48 10t-19.5 37q0 12 9 18.5t21.5 7.5t24.5 1h23q59 0 104 -6.5t105 -6.5 q29 0 59.5 3t58.5 3h179q12 -12 12 -22q0 -29 -21.5 -35t-50.5 -6q-55 0 -86 -10.5t-45 -28.5t-16 -47t-2 -66q0 -63 -1 -95t-2 -57.5t-2.5 -58t-1.5 -96.5v21q2 -29 8 -61t27 -48q18 -16 50 -22.5t62 -11.5t52.5 -11.5t22.5 -24.5q0 -31 -30 -33.5t-60 -2.5q-57 0 -114.5 6 t-115.5 6q-31 0 -53.5 -2t-42 -5t-42 -5t-52.5 -2h-29q-14 0 -27.5 3t-22.5 11t-9 24zM272 72q248 330 503 651t499 657q23 0 56 -22.5t56 -34.5q-57 -86 -120.5 -167t-128.5 -163q-193 -244 -383.5 -485.5t-370.5 -493.5q-10 4 -37 22.5t-74 35.5zM822 211q-3 6 -3 12 q0 8 6 17q66 98 122.5 191t121.5 181q25 33 35 50.5t17 32t17.5 31.5t32.5 50q12 18 34 26q19 7 38 6h5q22 -1 37 -9t15 -23q0 -4 2 3l1 7v-16v-61v-138v-235v-21q0 -8 4 -18q31 -8 56.5 -6t55.5 2q27 0 43.5 -17.5t16.5 -42.5q0 -37 -35 -36q-23 0 -43.5 2t-42.5 2 q-16 0 -25.5 -2t-23.5 -6q-4 -16 -4 -35v-33v-68v-28q0 -12 4 -27q-2 -25 -23.5 -36t-46.5 -13h-11q-19 0 -34 5q-20 7 -20 19q2 31 3 44.5t1 21.5v20v35q0 33 1 64t-28 35q-25 2 -48.5 3t-45.5 1q-49 0 -70.5 -1t-38.5 -1q-14 0 -35.5 -1t-70.5 -1q-12 0 -20 14zM969 313 q0 -12 12 -17t23 -5q35 0 70.5 2t55.5 4q35 0 42.5 9t7.5 32v70q0 31 -1 61.5t-1 69.5v102q-23 -31 -32 -45t-17.5 -28.5t-20.5 -35t-43 -61.5q-27 -35 -52.5 -75t-43.5 -83z" />
<glyph unicode="o" horiz-adv-x="1679" d="M70 788q0 18 20.5 25.5t48 12.5t58 12.5t51.5 25.5q12 10 19 34t9.5 51.5t2.5 54.5v43l2 145q0 27 0 20q0 -6 1 -18t1 -18t0 18v39t-3.5 51.5t-8.5 49t-13 32.5q-23 23 -53.5 28t-59 7t-48 10t-19.5 37q0 12 9 18.5t21.5 7.5t24.5 1h23q59 0 104 -6.5t105 -6.5 q29 0 59.5 3t58.5 3h179q12 -12 12 -22q0 -29 -21.5 -35t-50.5 -6q-55 0 -86 -10.5t-45 -28.5t-16 -47t-2 -66q0 -63 -1 -95t-2 -57.5t-2.5 -58t-1.5 -96.5v21q2 -29 8 -61t27 -48q18 -16 50 -22.5t62 -11.5t52.5 -11.5t22.5 -24.5q0 -31 -30 -33.5t-60 -2.5q-57 0 -114.5 6 t-115.5 6q-31 0 -53.5 -2t-42 -5t-42 -5t-52.5 -2h-29q-14 0 -27.5 3t-22.5 11t-9 24zM272 72q248 330 503 651t499 657q23 0 56 -22.5t56 -34.5q-57 -86 -120.5 -167t-128.5 -163q-193 -244 -383.5 -485.5t-370.5 -493.5q-10 4 -37 22.5t-74 35.5zM995 37q0 4 3 10t8 10 q57 63 104 101.5t86 69t68.5 64.5t52.5 89q22 56 21 101q0 46 -21 78q-43 66 -148 65q-31 0 -51 -12.5t-34.5 -29t-25.5 -31.5t-24 -22q-12 -6 -23.5 2.5t-11.5 22.5q0 8 7.5 23.5t17.5 31t21.5 29.5t17.5 20q31 27 52.5 43.5t42 24.5t42 11t51.5 3q147 0 215 -93 q42 -57 41 -137q0 -51 -16 -110q-16 -61 -63.5 -110t-101.5 -87t-101 -62.5t-66 -32.5q27 -13 68 -17q25 -3 49 -2l33 1q41 3 76.5 15.5t52.5 32.5q20 27 43.5 60.5t45 63.5t38 53.5t20.5 29.5q16 23 40 13.5t32 -27.5q-51 -82 -70.5 -145.5t-26 -106.5t-9.5 -65.5 t-17 -22.5q-59 0 -98 4t-76 10t-79 12.5t-105 8.5h-35t-13.5 -1t-13.5 -1h-35q-4 0 -10 -5.5t-11 -11.5t-11.5 -11t-10.5 -3q-20 0 -30.5 8t-10.5 35z" />
<glyph unicode="p" horiz-adv-x="1433" d="M100 1398q0 13 14 30q15 18 38.5 33.5t52 27.5t57.5 16q21 3 44 3q12 0 24 -1q37 -2 68.5 -16t54 -40t22.5 -67q0 -27 -17.5 -57.5t-42 -59t-51 -52t-42.5 -35.5q15 2 29 2q36 0 67 -12q43 -15 73.5 -43.5t48 -68.5t17.5 -85q0 -68 -46 -132.5t-112.5 -113.5t-142.5 -79 t-137 -30q-8 0 -11.5 8.5t-2.5 19.5t4.5 19.5t7.5 8.5q55 16 105 40.5t88 58.5t59.5 78t21.5 99q0 59 -31.5 97t-91.5 51q-25 4 -51.5 6t-50.5 -10q-8 -4 -23.5 -14.5t-21.5 -10.5q-4 0 -7 8t-5.5 18.5t-3.5 20.5t-1 14q0 10 15.5 18.5t23.5 12.5q27 14 57.5 37t57.5 48.5 t44 50t17 40.5q0 57 -25 67q-17 7 -38 7q-13 0 -27 -2q-37 -6 -60.5 -21.5t-49.5 -48.5q-2 -2 -5 5.5t-6.5 16.5t-5.5 19q-2 12 -2 18zM162 72q248 330 503 651t498 657q23 0 56.5 -22.5t56.5 -34.5q-57 -86 -120.5 -167t-129.5 -163q-193 -244 -383 -485.5t-371 -493.5 q-10 4 -36.5 22.5t-73.5 35.5zM712 211q-3 6 -3 12q0 8 6 17q66 98 122 191t121 181q25 33 35.5 50.5t17.5 32t17 31.5t33 50q12 18 33 26q19 6 38 6h6q21 -1 36.5 -9t15.5 -23q0 -4 1 3l1 7v-16v-61v-138v-235v-21q0 -8 4 -18q31 -8 56.5 -6t56.5 2q27 0 43 -17.5t16 -42.5 q0 -37 -35 -36q-23 0 -43 2t-43 2q-16 0 -25.5 -2t-23.5 -6q-4 -16 -4 -35v-33v-68v-28q0 -12 4 -27q-2 -25 -23.5 -36t-46.5 -13h-10q-19 0 -34 5q-21 7 -21 19q2 31 3 44.5t1 21.5v20v35q0 33 1 64t-28 35q-25 2 -48 3t-46 1q-49 0 -70.5 -1t-37.5 -1q-14 0 -36 -1t-71 -1 q-12 0 -19 14zM858 313q0 -12 12.5 -17t22.5 -5q35 0 70.5 2t56.5 4q35 0 42 9t7 32v70q0 31 -1 61.5t-1 69.5v102q-23 -31 -32 -45t-17 -28.5t-20.5 -35t-43.5 -61.5q-27 -35 -52.5 -75t-43.5 -83z" />
<glyph unicode="q" horiz-adv-x="1632" d="M127 762q0 4 3 10t7 10q57 63 104.5 101.5t86.5 69t68.5 64.5t52.5 89q21 56 21 101t-21 77q-43 66 -148 66q-31 0 -51.5 -12.5t-34.5 -29t-25.5 -31.5t-23.5 -22q-12 -6 -23.5 2.5t-11.5 22.5q0 8 7 23.5t17.5 31t21.5 29.5t18 20q31 27 52 43.5t41.5 24.5t42 11t52.5 3 q147 0 215 -93q42 -57 42 -137q0 -50 -17 -110q-16 -61 -63.5 -110t-102 -87t-101.5 -62.5t-65 -32.5q27 -12 67 -16q25 -3 49 -3q17 0 33 1q41 3 77 15.5t52 32.5q20 27 44 60.5t45.5 63.5t38 53.5t20.5 29.5q16 23 39.5 13.5t31.5 -27.5q-51 -82 -70.5 -145.5 t-25.5 -106.5t-9 -65.5t-17 -22.5q-59 0 -98.5 4t-76 10t-78.5 12.5t-106 8.5h-35t-13 -1t-13 -1h-35q-4 0 -10 -5.5t-11.5 -11.5t-11.5 -11t-10 -3q-20 0 -30.5 8t-10.5 35zM287 72q248 330 502.5 651t498.5 657q23 0 56.5 -22.5t56.5 -34.5q-57 -86 -120.5 -167 t-129.5 -163q-193 -244 -383 -485.5t-371 -493.5q-10 4 -36.5 22.5t-73.5 35.5zM1079 716q0 13 13 30q16 18 39.5 33.5t52 27.5t57.5 16q21 3 44 3q12 0 24 -1q37 -2 68.5 -16t54 -40t22.5 -67q0 -27 -17.5 -57.5t-42 -59t-51 -52t-43.5 -35.5q15 2 29 2q36 0 67 -12 q44 -15 74.5 -43.5t48 -68.5t17.5 -85q0 -68 -46 -132.5t-112.5 -113.5t-142.5 -78.5t-137 -29.5q-8 0 -11.5 8t-2.5 19t4.5 19.5t7.5 8.5q55 16 105 40.5t88 58.5t59.5 78t21.5 99q0 59 -31.5 97t-91.5 51q-25 4 -51.5 6t-50.5 -10q-8 -4 -23.5 -14.5t-21.5 -10.5 q-4 0 -7 8t-5.5 18.5t-3.5 20.5t-1 15q0 10 15.5 18t23.5 12q27 14 57.5 37t57.5 48.5t44 50t17 40.5q0 57 -26 67q-16 7 -37 7q-13 0 -27 -2q-37 -6 -60.5 -21.5t-49.5 -48.5q-2 -2 -5 5.5t-6.5 16.5t-5.5 19q-2 12 -2 18z" />
<glyph unicode="r" horiz-adv-x="1353" d="M51 817q0 4 1 6t1 6q8 6 25.5 15.5t39 23t44 28.5t41.5 34q25 23 39 36t24 25.5t22.5 28.5t30.5 47q8 18 27 18q14 0 15 -11t4 -21q-2 -6 -3 -21v-74q0 -14 1.5 -20t3.5 -16q19 -4 79 -6q30 -1 62 0h68q70 2 132 3t83 1q31 16 61.5 52t81.5 107q12 18 27 19 q14 0 15 -11.5t3 -21.5q-2 -6 -2 -21v-73q0 -14 1 -20.5t3 -16.5q25 -6 64 -6q15 0 31 1q60 3 112 3q23 0 52.5 -2t33.5 -6q12 -4 15 -16.5t3 -22.5t-4 -20.5t-6 -20.5q-8 -10 -30.5 -11.5t-32.5 -1.5q-41 0 -79 2.5t-77 2.5q-14 0 -40 -1t-36 -12q-10 0 -10 -8 q-8 -14 -8 -37q-3 -56 -3 -116v-30q1 -76 1 -147q0 -61 -1 -122.5t-1 -122.5q0 -66 39.5 -105t105.5 -39q55 0 85 19.5t73 46.5q23 0 22 -21q0 -33 -21.5 -58.5t-45.5 -43.5q-39 -29 -89.5 -42t-99.5 -13q-127 0 -180 71.5t-53 190.5q0 129 3 250.5t3 251.5q0 33 -20.5 48 t-46 19t-51 2t-36.5 -2q-6 0 -49 1t-92 1t-91 -2t-48 -8q-10 0 -11 -8q-8 -14 -8 -37q-3 -56 -3 -115v-29q1 -74 1 -145q0 -61 -1 -122.5t-1 -123.5q0 -66 40 -104.5t106 -38.5q55 0 84.5 19.5t72.5 46.5q23 0 23 -21q0 -33 -21.5 -58.5t-46.5 -43.5q-39 -29 -89 -42.5 t-99 -13.5q-127 0 -180.5 72t-53.5 190q0 129 3.5 251t3.5 251q0 37 -23 48.5t-48.5 12.5t-48 2t-22.5 19z" />
<glyph unicode="s" horiz-adv-x="774" d="M88 668q0 74 23.5 127t64.5 86.5t97.5 50t121.5 16.5q47 0 104.5 -14t92.5 -51q8 -8 14 -17.5t6 -21.5q0 -70 -6 -133q-2 -12 -5 -23.5t-19 -11.5q-12 0 -22.5 32.5t-32 70.5t-61.5 71t-112 33q-61 0 -93 -45t-32 -107q0 -45 34 -80t86 -68.5t111.5 -67.5t112 -74t86 -89 t33.5 -112q0 -49 -22 -101q-41 -98 -119 -141t-178 -43q-25 0 -70 5t-90 18.5t-78 35t-33 54.5l2 69q0 23 -1 45.5t-1 50.5q2 10 11.5 12.5t17.5 2.5q12 0 17.5 -8.5t9.5 -18.5q16 -37 33.5 -73.5t41 -64.5t55 -45.5t79.5 -17.5q74 0 118.5 45.5t44.5 122.5q0 51 -32.5 87 t-81.5 67t-106.5 58.5t-106.5 64.5t-82 85t-33 118zM166 1417q0 15 16 15h2q10 -2 35 -32t55.5 -68t60.5 -74.5t52 -51.5q23 14 50.5 50t54 73t52.5 65.5t46 28.5q12 0 12 -14q0 -6 -13.5 -33.5t-35 -67.5t-47 -85t-49 -85t-43 -68t-27.5 -34q-16 8 -20 17 q-59 96 -113.5 184t-83.5 164q-4 8 -4 16z" />
<glyph unicode="t" horiz-adv-x="1236" d="M76 -518q0 8 19.5 15t44 13.5t50 14.5t37.5 22q12 6 18.5 19.5t7.5 31t1 33.5v27q0 80 1 209t2 281.5t2 317.5t2 317.5t2 281.5t1 209v37q0 20 -2 39q-4 49 -25.5 68.5t-46 26.5t-44 12t-19.5 28q0 6 13.5 12t17.5 10q41 18 82 31.5t82 34.5q8 4 20 12t26.5 17.5t27 16.5 t18.5 7q12 0 15 -13.5t3 -21.5q0 -23 -4 -44t-4 -44v-53t1 -127t1 -164q0 -86 1 -160.5t2 -126t3 -53.5q2 0 3 -1t5 -1q10 0 17.5 5t15.5 9q25 16 56.5 32t65.5 28t67.5 20.5t62.5 8.5q90 0 166 -34t130 -92.5t84 -136t30 -165.5q0 -104 -36 -196.5t-99.5 -163.5 t-151.5 -113t-191 -44q-41 0 -67.5 4.5t-47 9.5t-41 9t-48.5 4q-16 0 -23.5 -10t-9.5 -25.5t-2 -32.5v-26q0 -74 2 -148.5t2 -148.5v-19q0 -8 2 -18t3 -17.5t7 -15.5q10 -16 37 -22t54.5 -9.5t51 -4.5t29.5 -5q10 -8 10 -22q0 -23 -21.5 -28t-37.5 -5q-49 0 -99 6t-100 6 q-55 0 -109 -7t-110 -7q-27 0 -45 3t-18 36zM419 303q1 -55 5 -102t12 -64q12 -23 36 -39t51.5 -27.5t57 -17.5t52.5 -6q82 0 145.5 29.5t107.5 80t66.5 119t22.5 146.5t-26.5 147.5t-75 122.5t-115 84t-146.5 31q-18 0 -51 -4t-63.5 -13.5t-54 -25.5t-23.5 -41v-240 q0 -25 -1 -75v-51v-54z" />
<glyph unicode="u" horiz-adv-x="2308" d="M100 948q-2 31 29 14.5t76 -48t95 -63.5t89 -32q20 0 8 29t-41.5 75t-68.5 103t-70 114.5t-47 108.5q-8 26 -8 46.5t8 37.5q18 49 59 79t92.5 47.5t109.5 27.5t114.5 17t105.5 16.5t82 27.5q3 2 4 2q4 0 -7 -13q-15 -17 -47 -50t-72 -79t-73.5 -97t-57.5 -103 q-22 -47 -21 -89v-7q0 -49 1 -104.5t8 -103.5t23.5 -82t45.5 -40q63 -29 125.5 -43t125 -22t124.5 -11.5t128 -7.5l-49 -104q-76 4 -118 7t-68.5 6t-46 5t-49.5 4q2 -17 2 -34q1 -27 -5 -53q-10 -42 -32 -83q-37 -51 -75 -85.5t-85 -59.5t-110.5 -42t-153.5 -34 q-33 -4 -58.5 8.5t-72.5 38.5q74 25 144.5 47.5t131 51t105.5 67.5t69 99q4 8 7.5 25.5t2.5 34.5t-5.5 30.5t-16.5 15.5q-84 14 -173 28.5t-158 44.5q-70 30 -108 84q-25 36 -25 88q0 28 7 60zM828 280q-6 15 -5 30q0 22 11 44q6 37 35.5 63.5t67.5 52.5t77 53.5t62.5 65.5 t23.5 89q0 53 -39 129q-52 104 -52 183q-1 21 3 41q18 93 96 179q70 66 126 73q11 1 23 2q45 -1 85 -23q52 -28 102.5 -83t109 -115t127 -115.5t158.5 -84.5q35 -11 64 -11q21 0 39 6q42 15 64 53t25 92q1 11 1 22q0 44 -10 90q-12 58 -41 111t-70 88q37 0 83 -25.5 t90 -68.5t80 -100.5t54 -121.5q32 -113 32 -208q0 -59 -12 -111q-32 -137 -120 -242q-94 -96 -218 -176t-269.5 -126t-307.5 -51h-28q-149 0 -304 48q-25 10 -59.5 31.5t-62 50.5t-41.5 65z" />
<glyph unicode="v" horiz-adv-x="1275" d="M47 4q0 29 24.5 35t55.5 13t55.5 28.5t24.5 81.5v588q0 27 -6 55q-49 6 -97 6q-16 0 -36.5 4t-20.5 27q0 8 1 19t5 20q6 10 25.5 14t43 6t47.5 5t36 9q6 80 10 163t25 161q18 78 55 147.5t90 123t123 84t154 30.5q139 -2 198.5 -43t69.5 -115q57 72 136 116q76 42 172 42 h9q43 0 87 -7t79 -23.5t57.5 -44t24.5 -72.5q2 -8 2 -16q0 -17 -9 -31q-13 -22 -35.5 -36t-48.5 -16t-42 13q-10 8 -18.5 30.5t-28 44t-61.5 39t-119 17.5q-66 0 -103 -56.5t-55.5 -134.5t-23.5 -159.5t-5 -135.5v-28t1 -39t3 -39.5t9 -24.5h229q10 0 21.5 -3t17.5 -9 q0 -10 1 -18.5t1 -18.5q0 -25 -10 -39q-23 -4 -47 -4h-46h-81q-41 0 -80 -2q-6 -6 -9.5 -18.5t-4.5 -25.5t0 -27.5t1 -22.5q0 -139 -1 -276.5t-1 -276.5q0 -45 14.5 -67.5t37 -34t53 -14.5t65.5 -9q8 -8 8 -23q0 -16 -10 -18l-2 -6q-16 -8 -39 -8q-39 0 -77.5 6t-77.5 6 q-59 0 -119 -6t-119 -6q-10 0 -31.5 2t-21.5 18q0 29 24.5 35t55 13t55.5 28.5t25 81.5v588q0 27 -7 55q-49 6 -96 6q-18 0 -64 1t-98 1h-92t-55 -2q-6 -6 -9 -18.5t-4 -25.5t0 -27.5t1 -22.5q0 -139 -1 -276.5t-1 -276.5q0 -45 14 -67.5t36.5 -34t53.5 -14.5t66 -9 q8 -8 8 -23q0 -16 -10 -18l-3 -6q-16 -8 -38 -8q-39 0 -78 6t-78 6q-59 0 -118.5 -6t-119.5 -6q-10 0 -31.5 2t-21.5 18zM362 1008q0 -18 1.5 -39t3.5 -39.5t8 -24.5l416 10q6 80 10 163t24 161q6 27 14.5 52.5t18.5 51.5q-41 4 -58.5 19.5t-27.5 35t-18.5 42t-30 40t-61 30 t-113.5 12.5q-66 0 -102.5 -56.5t-55 -134.5t-24 -159.5t-5.5 -135.5v-28z" />
<glyph unicode="w" horiz-adv-x="1261" d="M47 4q0 29 24.5 35t55.5 13t55.5 28.5t24.5 81.5v588q0 27 -6 55q-49 6 -97 6q-16 0 -36.5 4t-20.5 27q0 8 1 19t5 20q6 10 25.5 14t43 6t47.5 5t36 9q6 80 10 163t25 161q18 78 55 148.5t90 124.5t123 84q66 29 144 28h10q51 -2 100 -10t86 -31q23 68 60.5 128.5 t89.5 105.5q50 45 114 71q59 24 130 23h11q43 0 87 -7.5t79 -23.5t57.5 -44t24.5 -73q2 -8 2 -15q0 -16 -9 -32q-13 -22 -35.5 -35.5t-48.5 -15.5t-42 12q-10 8 -18.5 31t-27.5 44.5t-61 38.5t-120 17q-66 0 -103 -56t-55 -134t-23.5 -160t-5.5 -135v-39v-76t1 -96t2 -95 t3.5 -76t6.5 -36h229q10 0 21.5 -3t17.5 -9q0 -10 1 -18.5t1 -18.5q0 -25 -10 -39q-23 -4 -47 -4h-45h-82q-41 0 -80 -2q-6 -6 -9 -18.5t-4.5 -25.5t0 -27.5t1.5 -22.5q0 -139 -1.5 -276.5t-1.5 -276.5q0 -45 14.5 -67.5t37 -34t53.5 -14.5t65 -9q8 -8 9 -23q0 -16 -11 -18 l-2 -6q-16 -8 -39 -8q-39 0 -77.5 6t-77.5 6q-59 0 -118.5 -6t-119.5 -6q-10 0 -31.5 2t-21.5 18q0 29 24.5 35t55.5 13t55.5 28.5t24.5 81.5v588q0 27 -6 55q-16 2 -70.5 3t-120.5 1q-63 0 -125.5 1t-95.5 1q-6 -6 -9 -18.5t-4 -25.5t0 -27.5t1 -22.5q0 -139 -1 -276.5 t-1 -276.5q0 -45 14 -67.5t36.5 -34t53.5 -14.5t66 -9q8 -8 8 -23q0 -16 -10 -18l-3 -6q-16 -8 -38 -8q-39 0 -78 6t-78 6q-59 0 -118.5 -6t-119.5 -6q-10 0 -31.5 2t-21.5 18zM362 1008q0 -18 1.5 -39t3.5 -39.5t8 -24.5l422 10q2 106 3 169t2 108t3 85t6 101 q-12 10 -18.5 34t-30 48.5t-71.5 43t-142 18.5q-66 0 -102.5 -56.5t-55 -134.5t-24 -159.5t-5.5 -135.5v-28z" />
<glyph unicode="x" horiz-adv-x="952" d="M59 18q0 10 4.5 16.5t8.5 14.5q16 25 36.5 47.5t38.5 44.5q92 117 177.5 235t171.5 236q12 18 36.5 50t50 66t46 64.5t26.5 47.5q2 8 -14 11t-39.5 4t-46.5 0t-35 -1h-63q-37 0 -75 -1t-74 -3t-62 -8q-35 -6 -54.5 -25.5t-35 -39t-29.5 -35t-39 -15.5q-10 0 -20.5 3 t-6.5 18q6 20 9.5 28t6.5 14.5t6 14.5t9 29q4 16 9 34.5t12 34.5q4 12 12 23.5t25 11.5q29 0 50 -9t66 -9h320q37 0 74.5 2t74.5 2h31q20 0 41.5 -2t41 -6.5t25.5 -10.5q6 -7 6 -17q0 -7 -3 -14q-98 -133 -194.5 -264t-193.5 -266q-43 -59 -97 -128t-83 -134q-4 -10 15 -10 h30h86t124 3t120 11t74 25q14 12 22 33.5t13.5 43t10.5 42t15 30.5h10q20 2 26.5 -8.5t6.5 -28.5v-47t-2 -71.5t-7 -67.5t-13 -37q-5 -9 -13 -9q-5 0 -9 2q-14 7 -27 7q-154 0 -297.5 -2t-296.5 -2h-29t-46.5 2t-43 6t-19.5 14zM260 1405q0 14 15 14h4q10 -2 34.5 -31.5 t55 -67.5t60.5 -75t52 -51q23 14 50.5 50t54 73t52.5 65.5t46 28.5q12 0 12 -14q0 -6 -13 -34t-34.5 -68t-47.5 -85t-49.5 -85t-43 -67.5t-27.5 -33.5q-16 8 -20 16q-59 96 -113.5 184.5t-83.5 164.5q-4 8 -4 16z" />
<glyph unicode="y" horiz-adv-x="1099" d="M20 887q0 16 11.5 24.5t27.5 8.5q49 0 98.5 -5.5t98.5 -5.5q51 0 102 5q31 2 62 2q21 0 41 -1h31q14 -10 14 -24q0 -23 -15.5 -28t-31.5 -5q-14 0 -31.5 -2t-34 -8t-28 -17.5t-11.5 -29.5q0 -14 13.5 -55t33 -97.5t44 -121t47 -125t41 -108.5t26.5 -71q4 -8 6 -15t8 -11 q12 6 19 24q12 23 33.5 69t47 102.5t52.5 116.5t49.5 114.5t36.5 97.5t14 61q0 37 -22.5 50.5t-49 19.5t-49 11t-22.5 28q0 16 7 20t20 4q37 0 72.5 -1t70.5 -1q41 0 81 2.5t81 2.5q20 0 42.5 -1t22.5 -30q0 -25 -25.5 -29t-54.5 -20q-25 -14 -40 -42t-25 -53 q-31 -68 -63.5 -135t-63.5 -135q-74 -158 -144.5 -314.5t-140.5 -314.5q-43 -102 -93 -214.5t-105 -215.5q-5 -9 -19 -9h-3q-15 1 -30.5 9t-24.5 20.5t-5 22.5q57 123 116.5 255t114.5 253q4 20 -7 49t-17 47q-66 182 -130.5 364.5t-146.5 356.5q-14 31 -40 46.5t-50.5 22.5 t-43 13t-18.5 23zM606 1116q10 25 33 74t47.5 101t48 99.5t37.5 71.5q10 16 20 20q2 2 5 2q9 0 22 -9q14 -10 19.5 -13.5t10.5 -7.5t14 -10t28 -19q15 -6 15 -19q0 -16 -11 -26q-14 -16 -51 -61t-78 -96.5t-76 -92t-47 -47.5q-9 -6 -18 -6q-8 0 -15 5q-9 7 -9 17q0 7 5 17z " />
<glyph unicode="z" horiz-adv-x="1615" d="M47 4q0 29 24.5 35t55.5 13t55.5 28.5t24.5 81.5v594q0 27 -6 55q-49 6 -97 6q-16 0 -36.5 4t-20.5 27q0 8 1 19.5t5 19.5q6 10 25.5 14t43 7t47.5 5t36 9q6 80 7 159.5t21 157.5q18 78 56.5 148.5t92.5 124.5t125 84q67 29 145 28h10q43 0 87 -6t78.5 -23.5t57 -46 t24.5 -71.5q6 -25 -7 -47.5t-35.5 -36t-48 -15.5t-42.5 13q-12 8 -19 30.5t-26.5 44t-60.5 39t-121 17.5q-43 0 -74 -27t-51.5 -69t-32.5 -95t-18 -107.5t-8.5 -103.5t-2.5 -84v-28q0 -25 1.5 -55.5t11.5 -41.5l874 9q37 0 75 2t75 2h31q29 0 63.5 -4.5t44.5 -14.5 q6 -8 6 -16q0 -7 -4 -15q-98 -135 -193.5 -265t-193.5 -265q-43 -59 -97.5 -128t-82.5 -134q-4 -10 14 -10h117q43 0 92 1t95 6t81 12t49 20q14 12 22.5 33.5t13.5 43t10.5 42t15.5 30.5h10q20 2 26.5 -8t6.5 -29v-47q0 -25 -1 -53.5t-4 -54t-7.5 -45t-10.5 -23.5 q-8 -14 -21.5 -7t-27.5 7q-154 0 -297 -2t-297 -2h-29q-16 0 -34.5 1t-35 3t-27.5 7t-11 11q0 10 4 16.5t8 14.5q16 25 37 47.5t39 44.5q92 117 177 235t171 236q12 18 37 50t49.5 66t46 64.5t27.5 47.5q2 8 -14.5 9t-40 0t-46 -4t-34.5 -3h-64q-16 0 -50 -3t-105.5 -8.5 t-192.5 -8.5t-311 -3h-41q-18 0 -39 -2q-14 -14 -13 -45t1 -49q0 -141 -1 -279.5t-1 -279.5q0 -45 14 -67.5t36.5 -34t53.5 -14.5t66 -9q8 -8 8 -23q0 -14 -10 -18l-3 -6q-14 -8 -38 -8q-39 0 -78 6t-78 6q-59 0 -118.5 -6t-119.5 -6q-10 0 -31.5 2t-21.5 18z" />
<glyph unicode="|" horiz-adv-x="415" d="M139 -14v344q37 27 68 21.5t65 -21.5q2 -111 2 -217v-203q0 -150 -1 -269.5t-5 -195.5q-18 0 -35.5 -1t-35.5 -1q-12 0 -27 1t-27 3q0 43 -1 112.5t-2 174t-1 252.5zM139 819q0 125 1 244t2 223.5t1 188.5v143q14 4 29 4h31q16 0 38.5 -1t34.5 -11q-2 -43 -3 -104.5 t-2 -153.5t-1 -224v-309q-35 -23 -60.5 -24.5t-70.5 24.5z" />
<glyph unicode="&#xad;" d="M73.5 504.5q-1.5 25.5 24.5 70.5q125 0 244 -1t223.5 -2t188.5 -1h143q4 -14 4 -30v-29q0 -16 -1 -35.5t-11 -32.5q-43 2 -105 2h-153t-222 -1t-311 -1q-23 35 -24.5 60.5z" />
<glyph unicode="&#xb5;" horiz-adv-x="2533" d="M33 877q0 12 14 12q12 0 16 -2q31 -23 56.5 -41.5t51.5 -30.5t55.5 -18t68.5 -6q92 0 155.5 27.5t102.5 76.5t57.5 117.5t20.5 150.5q2 47 3 105.5t2 113t4 96.5t13 58q23 47 80 80q12 6 32.5 12t43 11.5t44 7.5t36.5 2q49 0 106.5 -19.5t110.5 -51.5t97 -72t67 -83 q23 41 66.5 80t97 70t109.5 49t104 18q14 0 35.5 -2t44 -7t43 -11t32.5 -12q57 -33 80 -80q10 -16 13 -58.5t4.5 -96.5t1.5 -113q0 -57 4 -105q2 -82 20.5 -150.5t57 -117.5t102 -77t156.5 -28q39 0 68.5 6.5t55 18.5t51 30.5t56.5 41.5q4 2 16 2q14 0 15 -13 q0 -10 -10.5 -26.5t-26 -32.5t-30.5 -30.5t-23 -20.5q-63 -53 -123 -77t-142 -24q-131 0 -220 61.5t-136 164.5q-29 74 -37 145.5t-6 173.5v144q0 84 -31.5 138t-124.5 54q-61 0 -98 -19.5t-57.5 -46t-29.5 -53t-13 -41.5q-27 -76 -127 -75h-2q-45 0 -80 25.5t-45 57.5 q-4 14 -13.5 41t-30 53.5t-57 46t-98.5 19.5q-92 0 -124 -54t-32 -138v-144q2 -102 -6 -173.5t-37 -145.5q-47 -102 -136 -163.5t-220 -61.5q-82 0 -141.5 23.5t-122.5 76.5q-8 6 -23.5 20.5t-31 31t-25.5 32.5t-10 27zM866 1208q0 55 38 91t91 36q57 0 88 -39t31 -92 t-35 -86t-88 -33t-89 34t-36 89zM905 410q0 14 19 14q16 0 63 -34t100.5 -76t101.5 -81.5t71 -54.5q23 14 72.5 54t104 81t103 72t68.5 31q12 0 12 -15q0 -6 -24.5 -36.5t-62.5 -73.5t-82 -93.5t-85 -93.5t-70.5 -73.5t-38.5 -36.5q-8 4 -20 16q-61 70 -118.5 140.5 t-121.5 136.5q-4 2 -17 19.5t-29.5 35.5t-28.5 34l-13 17q-4 8 -4 17zM938 719q0 68 25.5 126t69.5 101t102.5 68.5t126.5 25.5q66 0 123 -25.5t100 -69.5t67.5 -102t24.5 -124q0 -68 -25.5 -126t-68.5 -101t-101.5 -68t-126.5 -25q-66 0 -123 26t-100 69t-68.5 101 t-25.5 124zM1405 1202q0 55 38 91t91 36q57 0 88 -39t31 -92t-35 -86t-88 -33t-89 34t-36 89z" />
<glyph unicode="&#xb6;" horiz-adv-x="1234" d="M72 827q0 113 45 196t120.5 136t176 79t211.5 26h116q98 0 195.5 -2t196.5 -13q14 -2 26 -8t12 -22q0 -27 -16 -35t-39.5 -9t-52.5 1t-52.5 -5.5t-40 -28t-16.5 -65.5v-69v-50v-67q0 -39 1 -114t2 -196.5t4 -312.5q0 -115 -15.5 -239.5t-61.5 -232t-131 -181.5t-223 -88 q-12 -2 -19 9t-7 26q0 12 6 25.5t20 15.5q66 6 108 49t67.5 106.5t37 139t15.5 149.5t3 135.5t1 96.5v75q0 16 0 11q0 -4 -1 -16.5t-1 -6.5v733q0 25 -20.5 38t-45.5 13t-46 -13t-21 -38v-682q-37 0 -46.5 1t-23.5 1q-98 0 -187 32t-154.5 89t-104.5 137t-39 174z" />
<glyph unicode="&#xb7;" horiz-adv-x="526" d="M145 719q0 53 36 91t89 38t91 -38t38 -91t-40 -90t-91 -37q-53 0 -88 37t-35 90z" />
<glyph unicode="&#xd5;" horiz-adv-x="864" d="M244 1425q0 16 18 15q10 -2 35 -32t55.5 -67.5t60 -74.5t52.5 -52q23 14 50.5 50t54 73t52.5 66t46 29q12 0 12 -15q0 -6 -13.5 -33.5t-35 -67.5t-47 -85t-49 -85t-43 -67.5t-27.5 -34.5q-16 8 -21 17q-59 96 -113.5 184t-82.5 164q-4 8 -4 16z" />
<glyph unicode="&#xe1;" horiz-adv-x="931" d="M373 1282q0 47 36.5 86t84.5 39q27 0 51 -10.5t43.5 -28.5t31 -41.5t11.5 -50.5q0 -55 -40 -94t-95 -39q-6 0 -11 2q-23 2 -43 15.5t-35.5 32.5t-24.5 43t-9 46z" />
<glyph unicode="&#xe2;" horiz-adv-x="960" d="M248 1327h96q2 -27 13.5 -53.5t30 -48t42 -35.5t49.5 -16q7 -3 13 -3q33 0 62.5 12.5t52 34t35.5 49t13 60.5h84q0 -53 -21.5 -98t-56 -79t-80.5 -53.5t-98 -19.5q-12 0 -20 4q-41 2 -79 25.5t-67.5 59.5t-48 78t-20.5 83z" />
<glyph unicode="&#xe3;" horiz-adv-x="968" d="M578 -92q6 51 32.5 87t64.5 56.5t85 27.5t92 1q6 -2 8 -13.5t-8 -64.5q-18 2 -42 -6t-43 -22.5t-33.5 -35t-16.5 -40.5q-6 -47 20.5 -87t104.5 -42q45 -2 84 2t90 16q10 -12 11 -22.5t3 -26.5q-47 -18 -96 -35.5t-98 -19.5q-59 -2 -108.5 14t-84.5 47t-53 73t-12 91z" />
<glyph unicode="&#xe4;" horiz-adv-x="1064" d="M307 1077q10 25 32.5 74t47.5 101.5t48.5 99.5t37.5 71q10 16 19.5 20.5t27.5 -7.5q14 -10 19.5 -13.5t10.5 -7.5t14 -10t28 -19q16 -6 15 -21t-11 -24q-14 -16 -51 -61t-78 -96t-76 -92t-47 -48q-18 -12 -33.5 -0.5t-3.5 33.5zM580 1077q10 25 32.5 74t47 101.5t48 99.5 t37.5 71q10 16 20 20.5t28 -7.5q14 -10 19 -13.5t10 -7.5t14.5 -10t27.5 -19q16 -6 15.5 -21t-11.5 -24q-14 -16 -51 -61t-78 -96t-75.5 -92t-47.5 -48q-18 -12 -33.5 -0.5t-2.5 33.5z" />
<glyph unicode="&#xe5;" horiz-adv-x="948" d="M299 1280q0 35 14.5 67.5t39 58.5t56 41t66.5 15q88 0 143.5 -55t55.5 -137q0 -41 -15.5 -76t-42 -60.5t-62.5 -41t-75 -15.5q-12 0 -16 4q-33 2 -62.5 21.5t-52 48.5t-36 62.5t-13.5 66.5zM373 1278q0 -20 8 -42t22.5 -40t33 -30.5t38.5 -14.5q4 -2 10 -2q51 0 87 35 t36 86t-38 87t-87 36q-45 0 -77.5 -35t-32.5 -80z" />
<glyph unicode="&#xe6;" horiz-adv-x="1431" d="M96 172q0 45 23.5 82t59.5 66.5t78 53t79 42.5q68 35 128 52t134 36v143q0 84 -31.5 138.5t-124.5 54.5q-61 0 -98 -19.5t-57.5 -46t-29.5 -53.5t-13 -41q-10 -33 -43 -56.5t-72 -23.5q-23 0 -27 19.5t-4 35.5q0 49 41 99.5t100.5 92.5t129 68.5t127.5 26.5q14 0 35.5 -2 t44 -7t43 -11.5t32.5 -12.5q55 -31 76 -75q47 53 112.5 84.5t151.5 31.5q123 0 210 -52t124 -175q8 -27 13.5 -53.5t7.5 -53.5q0 -10 -3.5 -21t-13.5 -13q-6 0 -18.5 -4.5t-66.5 -16.5t-167.5 -36.5t-322.5 -67.5q2 -82 20.5 -150.5t57 -118t102 -77t156.5 -27.5 q39 0 68.5 6t55 18.5t51 31t56.5 40.5q4 2 16 2q14 0 15 -12q0 -10 -10.5 -26.5t-26 -33t-30.5 -30.5t-23 -21q-63 -53 -123 -76.5t-142 -23.5q-131 0 -220 61.5t-136 163.5l-51 -57q-23 -31 -57.5 -59.5t-75.5 -52t-86 -37t-86 -13.5q-104 0 -146.5 57.5t-42.5 149.5z M262 203q0 -57 26.5 -91t92.5 -34q43 0 88 20.5t74 51.5q8 8 21.5 23t25.5 31.5t20 33t2 26.5q-10 41 -13 82t-3 86q-18 -4 -44 -11t-52.5 -16.5t-50 -19.5t-39.5 -18q-27 -14 -53.5 -29.5t-47 -35t-34 -44t-13.5 -55.5zM774 543q86 20 155.5 39.5t141.5 35.5q49 12 79 28 t30 63q0 35 -15.5 68.5t-41 59t-58.5 42t-66 16.5q-43 0 -87 -22.5t-76.5 -67.5t-51 -110.5t-10.5 -151.5z" />
<glyph unicode="&#x2000;" horiz-adv-x="993" />
<glyph unicode="&#x2001;" horiz-adv-x="1987" />
<glyph unicode="&#x2002;" horiz-adv-x="993" />
<glyph unicode="&#x2003;" horiz-adv-x="1987" />
<glyph unicode="&#x2004;" horiz-adv-x="662" />
<glyph unicode="&#x2005;" horiz-adv-x="496" />
<glyph unicode="&#x2006;" horiz-adv-x="331" />
<glyph unicode="&#x2007;" horiz-adv-x="331" />
<glyph unicode="&#x2008;" horiz-adv-x="248" />
<glyph unicode="&#x2009;" horiz-adv-x="397" />
<glyph unicode="&#x200a;" horiz-adv-x="110" />
<glyph unicode="&#x2010;" d="M73.5 504.5q-1.5 25.5 24.5 70.5q125 0 244 -1t223.5 -2t188.5 -1h143q4 -14 4 -30v-29q0 -16 -1 -35.5t-11 -32.5q-43 2 -105 2h-153t-222 -1t-311 -1q-23 35 -24.5 60.5z" />
<glyph unicode="&#x2011;" d="M73.5 504.5q-1.5 25.5 24.5 70.5q125 0 244 -1t223.5 -2t188.5 -1h143q4 -14 4 -30v-29q0 -16 -1 -35.5t-11 -32.5q-43 2 -105 2h-153t-222 -1t-311 -1q-23 35 -24.5 60.5z" />
<glyph unicode="&#x2012;" d="M73.5 504.5q-1.5 25.5 24.5 70.5q125 0 244 -1t223.5 -2t188.5 -1h143q4 -14 4 -30v-29q0 -16 -1 -35.5t-11 -32.5q-43 2 -105 2h-153t-222 -1t-311 -1q-23 35 -24.5 60.5z" />
<glyph unicode="&#x2013;" horiz-adv-x="1179" d="M73 504.5q-2 25.5 30 70.5q155 0 302.5 -1t276.5 -2t233 -1h177q5 -14 5 -30v-29q0 -16 -1 -35.5t-14 -32.5q-53 2 -130 2h-189t-275 -1t-385 -1q-28 35 -30 60.5z" />
<glyph unicode="&#x2014;" horiz-adv-x="2203" d="M73 504.5q-4 25.5 61 70.5q309 0 603.5 -1t553 -2t466.5 -1h354q10 -14 10 -30v-29q0 -16 -2.5 -35.5t-27.5 -32.5q-106 2 -260 2h-378t-549.5 -1t-769.5 -1q-57 35 -61 60.5z" />
<glyph unicode="&#x201a;" horiz-adv-x="319" d="M76 201q-2 18 2.5 26.5t27.5 8.5h27h21q12 0 26.5 -1.5t38.5 -1.5q16 6 23.5 -9t3.5 -25q-4 -23 -11.5 -81.5t-14.5 -123t-15 -118.5t-15 -66q-8 -18 -36.5 -17.5t-32.5 27.5t-12.5 80t-15.5 110.5t-12 109.5t-5 81z" />
<glyph unicode="&#x201e;" horiz-adv-x="608" d="M76 205q-2 18 2.5 26.5t27.5 8.5h27h21q12 0 26.5 -1t38.5 -1q16 6 23.5 -9.5t3.5 -25.5q-4 -23 -11.5 -81.5t-14.5 -123t-15 -118.5t-15 -66q-8 -18 -36.5 -17.5t-32.5 27.5t-12.5 80t-15.5 110.5t-12 109.5t-5 81zM365 205q-2 18 2.5 26.5t27.5 8.5h27h20q12 0 26.5 -1 t39.5 -1q16 6 23.5 -9.5t3.5 -25.5q-4 -23 -11.5 -81.5t-14.5 -123t-15.5 -118.5t-14.5 -66q-8 -18 -36.5 -17.5t-32.5 27.5t-12.5 80t-15.5 110.5t-12 109.5t-5 81z" />
<glyph unicode="&#x202f;" horiz-adv-x="397" />
<glyph unicode="&#x205f;" horiz-adv-x="496" />
<glyph unicode="&#x25fc;" horiz-adv-x="1423" d="M0 0v1423h1423v-1423h-1423z" />
</font>
</defs>
</svg>
